<?xml version="1.0" encoding="UTF-8"?>
<svg id="Layer_2" data-name="Layer 2" xmlns="http://www.w3.org/2000/svg" viewBox="0 0 8.99 11.03">
  <defs>
    <style>
      .cls-1 {
        fill: #9e95c8;
      }
    </style>
  </defs>
  <g id="Layer_1-2" data-name="Layer 1">
    <path class="cls-1" d="m8.85,9.64c-.21-.8-.62-1.43-1.47-1.7-.48-.15-.94-.35-1.37-.63-.12-.08-.24-.17-.36-.26-.1-.07-.09-.18-.07-.28.02-.1.12-.07.19-.08.1,0,.21,0,.31,0,.51,0,.99-.13,1.43-.37.32-.17.37-.47.1-.72-.39-.37-.52-.83-.45-1.35.09-.65.08-1.3-.06-1.94-.11-.48-.25-.95-.56-1.35-.25-.32-.56-.51-.98-.5-.07,0-.14-.04-.2-.08C5.07.14,4.73.01,4.36,0c-1.01-.03-1.73.43-2.2,1.31-.27.52-.36,1.09-.35,1.67,0,.44,0,.87-.07,1.3-.08.5-.22.97-.63,1.33-.21.18-.17.47.05.64.43.32.92.5,1.46.5.16,0,.32-.01.48-.01.06,0,.13,0,.15.08.03.13,0,.24-.11.32-.1.07-.2.14-.3.18-.53.23-1.06.47-1.6.69-.57.22-.93.62-1.05,1.22-.09.43-.13.87-.19,1.3-.04.32.13.52.46.52,1.34,0,2.68,0,4.03,0s2.71,0,4.06,0c.27,0,.47-.19.44-.45-.03-.32-.07-.64-.14-.95Z"/>
  </g>
</svg>