<?xml version="1.0" encoding="utf-8"?>
<!-- Generator: Adobe Illustrator 27.3.1, SVG Export Plug-In . SVG Version: 6.00 Build 0)  -->
<svg version="1.1" id="Layer_2_00000172427662523958803350000018429004225455249837_"
	 xmlns="http://www.w3.org/2000/svg" xmlns:xlink="http://www.w3.org/1999/xlink" x="0px" y="0px" viewBox="0 0 11.2 10.3"
	 style="enable-background:new 0 0 11.2 10.3;" xml:space="preserve">
<style type="text/css">
	.st0{fill:#5C5C9E;}
</style>
<g id="Layer_4">
	<g>
		<path class="st0" d="M5.6,2.6c-1.4,0-2.9,0-4.3,0C0.5,2.6,0,3.1,0,3.8c0,1.7,0,3.5,0,5.2c0,0.8,0.5,1.3,1.3,1.3c2.9,0,5.8,0,8.6,0
			c0.8,0,1.3-0.5,1.3-1.3c0-1.7,0-3.5,0-5.2c0-0.8-0.5-1.3-1.3-1.3C8.5,2.6,7,2.6,5.6,2.6z M5.6,1.3c-1.3,0-2.6,0-3.8,0
			c-0.3,0-0.5,0.2-0.5,0.4c0,0.2,0.2,0.4,0.5,0.4c2.6,0,5.1,0,7.7,0c0.1,0,0.1,0,0.1,0c0.2-0.1,0.3-0.3,0.3-0.5
			c0-0.2-0.2-0.4-0.4-0.4C8.2,1.3,6.9,1.3,5.6,1.3L5.6,1.3z M5.6,0c-1,0-2,0-3,0C2.3,0,2.1,0.2,2.1,0.4s0.2,0.4,0.5,0.4
			c2,0,4,0,5.9,0c0.1,0,0.1,0,0.2,0C8.9,0.8,9,0.6,9,0.4C9,0.2,8.8,0,8.6,0C7.6,0,6.6,0,5.6,0z"/>
		<path class="st0" d="M5.6,2.6c1.4,0,2.9,0,4.3,0c0.8,0,1.3,0.5,1.3,1.3c0,1.7,0,3.5,0,5.2c0,0.8-0.5,1.3-1.3,1.3
			c-2.9,0-5.8,0-8.6,0C0.5,10.3,0,9.8,0,9.1c0-1.7,0-3.5,0-5.2c0-0.8,0.5-1.3,1.3-1.3C2.7,2.6,4.1,2.6,5.6,2.6L5.6,2.6z"/>
		<path class="st0" d="M5.6,1.3c1.3,0,2.6,0,3.9,0c0.2,0,0.4,0.1,0.4,0.4c0,0.2-0.1,0.4-0.3,0.5c-0.1,0-0.1,0-0.1,0
			c-2.6,0-5.1,0-7.7,0C1.5,2.2,1.3,2,1.3,1.7c0-0.2,0.2-0.4,0.5-0.4C3,1.3,4.3,1.3,5.6,1.3L5.6,1.3z"/>
		<path class="st0" d="M5.6,0c1,0,2,0,3,0C8.8,0,9,0.2,9,0.4c0,0.2-0.1,0.4-0.3,0.5c-0.1,0-0.1,0-0.2,0c-2,0-4,0-5.9,0
			c-0.3,0-0.5-0.2-0.5-0.4C2.2,0.2,2.3,0,2.6,0C3.6,0,4.6,0,5.6,0z"/>
	</g>
</g>
</svg>
