<?xml version="1.0" encoding="UTF-8"?>
<svg id="Layer_2" data-name="Layer 2" xmlns="http://www.w3.org/2000/svg" viewBox="0 0 11.18 10.31">
  <defs>
    <style>
      .cls-1 {
        fill: #fff;
      }

      .cls-2 {
        fill: #9e95c8;
      }
    </style>
  </defs>
  <g id="Layer_4" data-name="Layer 4">
    <g>
      <path class="cls-1" d="m5.59,2.58c-1.44,0-2.88,0-4.32,0C.51,2.58,0,3.09,0,3.84c0,1.74,0,3.47,0,5.21,0,.75.51,1.26,1.26,1.26,2.88,0,5.77,0,8.65,0,.75,0,1.26-.51,1.26-1.26,0-1.74,0-3.47,0-5.21,0-.75-.51-1.26-1.26-1.26-1.44,0-2.88,0-4.32,0Zm0-1.29c-1.28,0-2.56,0-3.84,0-.27,0-.45.18-.46.42,0,.25.19.44.46.44,2.56,0,5.12,0,7.68,0,.05,0,.1,0,.15-.02.21-.06.34-.27.31-.49-.03-.2-.22-.36-.44-.36-1.29,0-2.57,0-3.86,0ZM5.59,0C4.6,0,3.61,0,2.61,0c-.27,0-.46.18-.46.43,0,.25.19.43.46.43,1.98,0,3.97,0,5.95,0,.05,0,.11,0,.16-.02.21-.06.33-.26.3-.48-.03-.2-.21-.36-.43-.36-1,0-2,0-3,0Z"/>
      <path class="cls-2" d="m5.59,2.58c1.44,0,2.88,0,4.32,0,.75,0,1.26.51,1.26,1.26,0,1.74,0,3.47,0,5.21,0,.75-.51,1.26-1.26,1.26-2.88,0-5.77,0-8.65,0-.75,0-1.26-.51-1.26-1.26,0-1.74,0-3.47,0-5.21,0-.75.51-1.26,1.26-1.26,1.44,0,2.88,0,4.32,0Z"/>
      <path class="cls-2" d="m5.59,1.29c1.29,0,2.57,0,3.86,0,.22,0,.41.15.44.36.03.22-.1.43-.31.49-.05.01-.1.02-.15.02-2.56,0-5.12,0-7.68,0-.27,0-.46-.18-.46-.44,0-.25.19-.42.46-.42,1.28,0,2.56,0,3.84,0Z"/>
      <path class="cls-2" d="m5.59,0C6.59,0,7.59,0,8.59,0c.22,0,.41.16.43.36.03.22-.09.42-.3.48-.05.02-.11.02-.16.02-1.98,0-3.97,0-5.95,0-.27,0-.46-.18-.46-.43C2.15.18,2.34,0,2.61,0c.99,0,1.99,0,2.98,0Z"/>
    </g>
  </g>
</svg>