<?xml version="1.0" encoding="UTF-8"?>
<svg id="Layer_2" data-name="Layer 2" xmlns="http://www.w3.org/2000/svg" viewBox="0 0 9.46 12.03">
  <defs>
    <style>
      .cls-1 {
        fill: #9e95c8;
      }
    </style>
  </defs>
  <g id="Layer_2-2" data-name="Layer 2">
    <g>
      <path class="cls-1" d="m6.02,0v.16c0,.64,0,1.28,0,1.92,0,.8.55,1.36,1.36,1.36.64,0,1.28,0,1.92,0h.16v.15c0,2.37,0,4.74,0,7.1,0,.79-.55,1.34-1.34,1.34-2.26,0-4.51,0-6.77,0C.55,12.03,0,11.48,0,10.69,0,7.57,0,4.45,0,1.33,0,.55.55,0,1.34,0,2.84,0,4.35,0,5.86,0h.16Zm-2.57,7.74c.42,0,.84,0,1.26,0,.26,0,.45-.18.45-.43,0-.3.01-.6,0-.9-.03-.64-.47-1.15-1.11-1.22-.37-.04-.74-.04-1.11-.02-.63.03-1.12.48-1.19,1.1-.04.32-.02.65-.02.98,0,.32.17.49.49.49.41,0,.82,0,1.23,0Zm1.28-4.29c0-.7-.57-1.29-1.27-1.3-.71,0-1.3.57-1.31,1.29,0,.7.58,1.29,1.28,1.29.71,0,1.3-.57,1.3-1.28Zm0,5.58c-.28,0-.56,0-.83,0-.57,0-1.15,0-1.72,0-.33,0-.54.29-.42.59.07.18.23.27.46.27,1.67,0,3.35,0,5.02,0,.03,0,.06,0,.09,0,.17-.02.29-.1.36-.26.07-.16.04-.31-.06-.44-.1-.12-.23-.16-.38-.16-.84,0-1.68,0-2.53,0Zm2.15-3.44c.14,0,.28,0,.42,0,.25,0,.44-.2.44-.43,0-.24-.19-.42-.44-.43-.28,0-.56,0-.83,0-.25,0-.44.19-.44.43,0,.24.19.42.44.43.14,0,.28,0,.42,0Zm0,1.29c-.13,0-.27,0-.4,0-.26,0-.45.19-.45.44,0,.24.19.42.45.42.27,0,.55,0,.82,0,.26,0,.45-.2.45-.44,0-.24-.2-.42-.45-.42-.14,0-.28,0-.42,0Z"/>
      <path class="cls-1" d="m9.16,2.58c-.32,0-.66,0-.99,0-.29,0-.58,0-.87,0-.23,0-.42-.19-.42-.42,0-.61,0-1.22,0-1.82,0-.02,0-.03,0-.03.76.76,1.52,1.52,2.28,2.28Z"/>
    </g>
  </g>
</svg>