<?xml version="1.0" encoding="utf-8"?>
<!-- Generator: Adobe Illustrator 27.3.0, SVG Export Plug-In . SVG Version: 6.00 Build 0)  -->
<svg version="1.1" id="Layer_1" xmlns="http://www.w3.org/2000/svg" xmlns:xlink="http://www.w3.org/1999/xlink" x="0px" y="0px"
	 viewBox="0 0 400 400" style="enable-background:new 0 0 400 400;" xml:space="preserve">
<style type="text/css">
	.st0{fill:#2D4552;}
	.st1{fill:#E2574C;}
	.st2{fill:#2EAD33;}
	.st3{fill:#D65348;}
	.st4{fill:#1D8D22;}
	.st5{fill:#C04B41;}
</style>
<path class="st0" d="M131.9,222.7c-14.9,4.2-24.7,11.6-31.1,19.1c6.2-5.4,14.4-10.4,25.6-13.5c11.4-3.2,21.1-3.2,29.2-1.7v-6.3
	C148.7,219.7,140.8,220.2,131.9,222.7z M100.1,169.9l-55.3,14.6c0,0,1,1.4,2.9,3.3l46.9-12.4c0,0-0.7,8.6-6.4,16.2
	C99,183.4,100.1,169.9,100.1,169.9z M146.4,300c-77.9,21-119.1-69.3-131.5-116.1c-5.8-21.6-8.3-38-8.9-48.6c-0.1-1.1,0-2,0-2.9
	c-4,0.2-6,2.3-5.6,8.4c0.7,10.6,3.2,26.9,8.9,48.6C21.8,236.2,63,326.5,140.9,305.5c16.9-4.6,29.7-12.9,39.2-23.5
	C171.3,290,160.3,296.2,146.4,300z M161,114.7v5.5h30.5c-0.6-2-1.3-3.7-1.9-5.5H161z"/>
<path class="st0" d="M198.4,160.3c13.7,3.9,21,13.5,24.8,22.1l15.3,4.3c0,0-2.1-29.8-29.1-37.5c-25.2-7.2-40.8,14-42.7,16.8
	C174.2,160.8,184.9,156.5,198.4,160.3z M320.3,182.5c-25.3-7.2-40.8,14-42.7,16.7c7.3-5.2,18.1-9.5,31.6-5.7
	c13.7,3.9,21,13.5,24.8,22.1l15.3,4.4C349.4,220,347.3,190.2,320.3,182.5z M305.1,261.2l-127.4-35.6c0,0,1.4,7,6.7,16l107.3,30
	C300.5,266.5,305.1,261.2,305.1,261.2z M216.8,337.8c-100.9-27-88.7-155.6-72.4-216.5c6.7-25.1,13.6-43.8,19.4-56.3
	c-3.4-0.7-6.3,1.1-9,6.8c-6.1,12.3-13.9,32.4-21.4,60.6c-16.3,60.9-28.5,189.4,72.4,216.5c47.5,12.7,84.6-6.6,112.2-37
	C291.7,335.6,258.2,348.9,216.8,337.8z"/>
<path class="st1" d="M161,269.8v-25.9L89,264.3c0,0,5.3-30.9,42.9-41.6c11.4-3.2,21.1-3.2,29.2-1.7V114.7h36.1
	c-3.9-12.1-7.7-21.5-10.9-28c-5.3-10.7-10.7-3.6-23,6.7c-8.7,7.2-30.5,22.7-63.5,31.5c-32.9,8.9-59.5,6.5-70.6,4.6
	c-15.7-2.7-24-6.2-23.2,5.8c0.7,10.6,3.2,26.9,8.9,48.6C27.3,230.7,68.6,320.9,146.4,300c20.3-5.5,34.7-16.3,44.6-30.1L161,269.8
	L161,269.8z M44.8,184.5l55.3-14.6c0,0-1.6,21.3-22.4,26.8C57,202.1,44.8,184.5,44.8,184.5z"/>
<path class="st2" d="M369.3,115.9c-14.4,2.5-48.9,5.7-91.5-5.8c-42.7-11.4-71-31.4-82.2-40.8c-15.9-13.3-22.9-22.6-29.8-8.6
	c-6.1,12.3-13.9,32.4-21.4,60.6c-16.3,60.9-28.5,189.4,72.4,216.5c100.9,27,154.5-90.4,170.9-151.3c7.5-28.1,10.8-49.4,11.7-63.1
	C400.4,107.8,389.7,112.3,369.3,115.9z M166.6,166.3c0,0,15.9-24.7,42.9-17.1c27,7.7,29.1,37.5,29.1,37.5L166.6,166.3z M232.5,277.3
	c-47.4-13.9-54.7-51.7-54.7-51.7l127.4,35.6C305.1,261.2,279.4,291,232.5,277.3z M277.5,199.5c0,0,15.9-24.7,42.8-17
	c27,7.7,29.1,37.5,29.1,37.5L277.5,199.5z"/>
<path class="st3" d="M135.9,251.1L89,264.3c0,0,5.1-29,39.6-40.5l-26.5-99.6l-2.3,0.7c-32.9,8.9-59.5,6.5-70.6,4.6
	c-15.7-2.7-24-6.2-23.2,5.8c0.7,10.6,3.2,26.9,8.9,48.6C27.3,230.7,68.5,320.9,146.4,300l2.3-0.7L135.9,251.1z M44.8,184.5
	l55.3-14.6c0,0-1.6,21.3-22.4,26.8C57,202.1,44.8,184.5,44.8,184.5z"/>
<path class="st4" d="M234.6,277.8l-2.1-0.5c-47.4-13.9-54.7-51.7-54.7-51.7l65.7,18.4l34.8-133.7l-0.4-0.1
	c-42.7-11.4-71-31.4-82.2-40.8c-15.9-13.3-22.9-22.6-29.8-8.6c-6.1,12.3-13.9,32.4-21.4,60.6c-16.3,60.9-28.5,189.4,72.4,216.5
	l2.1,0.5L234.6,277.8z M166.6,166.3c0,0,15.9-24.7,42.9-17.1c27,7.7,29.1,37.5,29.1,37.5L166.6,166.3z"/>
<path class="st5" d="M138.3,250.4l-12.6,3.6c3,16.7,8.2,32.8,16.4,47c1.4-0.3,2.8-0.6,4.3-1c3.8-1,7.4-2.3,10.8-3.7
	C148,282.6,141.9,266.9,138.3,250.4z M133.3,132.4c-6.5,24.1-12.2,58.8-10.7,93.6c2.8-1.2,5.9-2.4,9.2-3.3l2.3-0.5
	c-2.8-37.2,3.3-75.1,10.2-100.9c1.8-6.5,3.5-12.6,5.3-18.2c-2.8,1.8-5.9,3.6-9.3,5.5C138,115.8,135.7,123.7,133.3,132.4z"/>
</svg>
