<svg width="1045" height="621" viewBox="0 0 1045 621" fill="none" xmlns="http://www.w3.org/2000/svg">
<path d="M204 17.9999C100.5 -55.1251 36.8507 126.556 100.5 159C229 224.5 17.0002 405 402 425.5C787 446 682.5 361 748 299.5C813.5 238 849.5 186.5 977 211.5C1104.5 236.5 1037.5 17.9999 898.5 17.9999C759.5 18 342 115.5 204 17.9999Z" fill="#B23C87"/>
<path d="M914.5 469.5C824 469.5 822 273.5 686 174.5L746 545C1015.5 660.5 1005 469.5 914.5 469.5Z" fill="#EA638D"/>
<path d="M156 153C-211 707.5 140 657 517 558H321.5C320.167 561.5 267 583.948 198.5 572C113 557.087 79.4999 433.5 91.9999 327C107.339 196.309 193.5 236.5 233.5 172C273.5 107.5 233.5 75.5001 156 153Z" fill="#EA638D"/>
</svg>
