<?xml version="1.0" encoding="utf-8"?>
<!-- Generator: Adobe Illustrator 27.5.0, SVG Export Plug-In . SVG Version: 6.00 Build 0)  -->
<svg version="1.1" id="Layer_1" xmlns="http://www.w3.org/2000/svg" xmlns:xlink="http://www.w3.org/1999/xlink" x="0px" y="0px"
	 viewBox="0 0 1045 621" style="enable-background:new 0 0 1045 621;" xml:space="preserve">
<style type="text/css">
	.st0{fill:#B23C87;}
	.st1{fill:#EA638D;}
</style>
<path class="st0" d="M204,18C100.5-55.1,36.9,126.6,100.5,159C229,224.5,17,405,402,425.5s280.5-64.5,346-126s101.5-113,229-88
	S1037.5,18,898.5,18C759.5,18,342,115.5,204,18z"/>
<path class="st1" d="M746,545"/>
<path class="st1" d="M686,174.5"/>
<path class="st1" d="M508.1,562.9C107.7,662.5-201.7,687.5,165.3,133c77.5-77.5,117.5-45.5,77.5,19s-126.2,24.3-141.5,155
	c-12.5,106.5,43.5,251.6,129,266.5c68.5,11.9,117.8-26,161.6-49c40.6-22.2,109-97.6,80.4-238.6c-21.6-106.2,110-201,223-131.5
	c136,99,138,295.5,228.5,295c107.4-0.5,111.9,243.3-195.5-3.5C639.2,404.6,686,512.3,508.1,562.9z"/>
</svg>
