<?xml version="1.0" encoding="utf-8"?>
<!-- Generator: Adobe Illustrator 27.3.1, SVG Export Plug-In . SVG Version: 6.00 Build 0)  -->
<svg version="1.1" id="Layer_2_00000067224491155884338870000008775126411475475391_"
	 xmlns="http://www.w3.org/2000/svg" xmlns:xlink="http://www.w3.org/1999/xlink" x="0px" y="0px" viewBox="0 0 9 11"
	 style="enable-background:new 0 0 9 11;" xml:space="preserve">
<style type="text/css">
	.st0{fill:#5C5C9E;}
</style>
<g id="Layer_1-2">
	<path class="st0" d="M8.9,9.6C8.6,8.8,8.2,8.2,7.4,7.9C6.9,7.8,6.4,7.6,6,7.3C5.9,7.2,5.8,7.1,5.7,7.1C5.6,7,5.6,6.9,5.6,6.8
		c0-0.1,0.1-0.1,0.2-0.1c0.1,0,0.2,0,0.3,0c0.5,0,1-0.1,1.4-0.4c0.3-0.2,0.4-0.5,0.1-0.7C7.2,5.2,7.1,4.8,7.2,4.3
		C7.2,3.6,7.2,3,7.1,2.3C7,1.8,6.8,1.4,6.5,1C6.3,0.6,6,0.5,5.6,0.5c-0.1,0-0.1,0-0.2-0.1C5.1,0.1,4.7,0,4.4,0c-1,0-1.7,0.4-2.2,1.3
		C1.9,1.8,1.8,2.4,1.8,3c0,0.4,0,0.9-0.1,1.3c-0.1,0.5-0.2,1-0.6,1.3c-0.2,0.2-0.2,0.5,0,0.6c0.4,0.3,0.9,0.5,1.5,0.5
		c0.2,0,0.3,0,0.5,0c0.1,0,0.1,0,0.2,0.1c0,0.1,0,0.2-0.1,0.3C3,7.2,2.9,7.3,2.8,7.3C2.3,7.5,1.8,7.8,1.2,8c-0.6,0.2-0.9,0.6-1,1.2
		C0.1,9.7,0.1,10.1,0,10.5C0,10.8,0.1,11,0.5,11c1.3,0,2.7,0,4,0s2.7,0,4.1,0C8.8,11,9,10.9,9,10.6C9,10.3,8.9,10,8.9,9.6L8.9,9.6z"
		/>
</g>
</svg>
