<?xml version="1.0" encoding="UTF-8"?>
<svg id="Layer_2" data-name="Layer 2" xmlns="http://www.w3.org/2000/svg" viewBox="0 0 14.67 11.67">
  <defs>
    <style>
      .cls-1 {
        fill: #fff;
      }

      .cls-2 {
        fill: #9e95c8;
      }
    </style>
  </defs>
  <g id="Layer_3" data-name="Layer 3">
    <g>
      <path class="cls-1" d="m5.99,11c-.02.38.18.63.5.67.27.03.54-.18.59-.47.05-.31.1-.63.15-.95.14-.9.28-1.81.42-2.71.14-.9.28-1.81.41-2.71.14-.91.28-1.82.42-2.73.08-.49.16-.99.22-1.48.04-.32-.18-.57-.49-.61-.28-.03-.55.17-.59.46-.06.38-.12.75-.17,1.13-.14.91-.28,1.82-.42,2.73-.14.9-.28,1.81-.41,2.71-.13.84-.26,1.69-.39,2.53-.08.5-.15,1-.22,1.43ZM1.32,5.83c.36-.38.7-.74,1.05-1.11.65-.69,1.3-1.37,1.95-2.06.14-.15.22-.32.18-.53-.05-.21-.18-.36-.39-.42-.24-.07-.43.02-.59.19C2.41,3.07,1.3,4.23.2,5.4c-.27.29-.27.58,0,.87.84.89,1.68,1.78,2.53,2.68.26.27.52.55.78.82.14.15.3.24.51.2.22-.03.37-.15.45-.36.08-.22.03-.41-.13-.58-.32-.35-.65-.69-.97-1.03-.68-.72-1.36-1.44-2.05-2.17Z"/>
      <path class="cls-2" d="m14.67,5.98c-.12.15-.22.31-.35.44-1.04,1.11-2.09,2.22-3.13,3.32-.14.15-.31.26-.53.23-.22-.03-.38-.15-.46-.36-.08-.23-.02-.42.14-.59.46-.49.93-.99,1.39-1.48.53-.57,1.07-1.13,1.61-1.71-.04-.04-.08-.09-.12-.13-.96-1.02-1.92-2.03-2.88-3.05-.16-.17-.24-.37-.15-.6.08-.21.23-.33.46-.36.21-.03.37.06.51.21.64.68,1.28,1.36,1.93,2.04.43.46.87.91,1.3,1.38.1.11.19.25.28.37v.29Z"/>
      <path class="cls-2" d="m5.99,11c.07-.43.14-.93.22-1.43.13-.84.26-1.69.39-2.53.14-.9.28-1.81.41-2.71.14-.91.28-1.82.42-2.73.06-.38.11-.75.17-1.13.05-.29.32-.5.59-.46.32.04.53.29.49.61-.06.5-.14.99-.22,1.48-.14.91-.28,1.82-.42,2.73-.14.9-.28,1.81-.41,2.71-.14.9-.28,1.81-.42,2.71-.05.32-.09.63-.15.95-.05.29-.31.5-.59.47-.32-.04-.52-.28-.5-.67Z"/>
      <path class="cls-2" d="m1.32,5.83c.69.73,1.37,1.45,2.05,2.17.32.34.65.69.97,1.03.16.17.21.36.13.58-.08.2-.23.33-.45.36-.21.03-.37-.06-.51-.2-.26-.27-.52-.55-.78-.82-.84-.89-1.68-1.78-2.53-2.68-.28-.29-.28-.58,0-.87,1.1-1.17,2.2-2.33,3.3-3.5.16-.17.35-.26.59-.19.21.06.34.2.39.42.05.21-.03.38-.18.53-.65.69-1.3,1.37-1.95,2.06-.35.37-.69.74-1.05,1.11Z"/>
    </g>
  </g>
</svg>