<?xml version="1.0" encoding="utf-8"?>
<!-- Generator: Adobe Illustrator 27.3.1, SVG Export Plug-In . SVG Version: 6.00 Build 0)  -->
<svg version="1.1" id="Layer_2_00000047032600316660672870000000388464751599083906_"
	 xmlns="http://www.w3.org/2000/svg" xmlns:xlink="http://www.w3.org/1999/xlink" x="0px" y="0px" viewBox="0 0 14.7 11.7"
	 style="enable-background:new 0 0 14.7 11.7;" xml:space="preserve">
<style type="text/css">
	.st0{fill:#5C5C9E;}
</style>
<g id="Layer_3">
	<g>
		<path class="st0" d="M6,11c0,0.4,0.2,0.6,0.5,0.7c0.3,0,0.5-0.2,0.6-0.5c0.1-0.3,0.1-0.6,0.2-0.9c0.1-0.9,0.3-1.8,0.4-2.7
			s0.3-1.8,0.4-2.7C8.2,3.9,8.3,3,8.5,2.1c0.1-0.5,0.2-1,0.2-1.5C8.7,0.3,8.5,0,8.2,0C7.9,0,7.7,0.2,7.6,0.5
			C7.6,0.8,7.5,1.2,7.5,1.6C7.3,2.5,7.2,3.4,7,4.3C6.9,5.2,6.8,6.1,6.6,7C6.5,7.9,6.4,8.7,6.2,9.6C6.2,10.1,6.1,10.6,6,11L6,11z
			 M1.3,5.8c0.4-0.4,0.7-0.7,1-1.1C3,4,3.7,3.3,4.3,2.7c0.1-0.2,0.2-0.3,0.2-0.5C4.4,1.9,4.3,1.8,4.1,1.7c-0.2-0.1-0.4,0-0.6,0.2
			C2.4,3.1,1.3,4.2,0.2,5.4c-0.3,0.3-0.3,0.6,0,0.9C1,7.2,1.9,8.1,2.7,8.9C3,9.2,3.2,9.5,3.5,9.8C3.7,9.9,3.8,10,4,10
			c0.2,0,0.4-0.1,0.4-0.4c0.1-0.2,0-0.4-0.1-0.6C4,8.7,3.7,8.3,3.4,8C2.7,7.3,2,6.6,1.3,5.8z"/>
		<path class="st0" d="M14.7,6c-0.1,0.2-0.2,0.3-0.4,0.4c-1,1.1-2.1,2.2-3.1,3.3C11,9.9,10.9,10,10.7,10c-0.2,0-0.4-0.1-0.5-0.4
			c-0.1-0.2,0-0.4,0.1-0.6c0.5-0.5,0.9-1,1.4-1.5c0.5-0.6,1.1-1.1,1.6-1.7c0,0-0.1-0.1-0.1-0.1c-1-1-1.9-2-2.9-3
			c-0.2-0.2-0.2-0.4-0.1-0.6c0.1-0.2,0.2-0.3,0.5-0.4c0.2,0,0.4,0.1,0.5,0.2c0.6,0.7,1.3,1.4,1.9,2c0.4,0.5,0.9,0.9,1.3,1.4
			c0.1,0.1,0.2,0.2,0.3,0.4C14.7,5.7,14.7,6,14.7,6z"/>
		<path class="st0" d="M6,11c0.1-0.4,0.1-0.9,0.2-1.4C6.3,8.7,6.5,7.9,6.6,7C6.7,6.1,6.9,5.2,7,4.3c0.1-0.9,0.3-1.8,0.4-2.7
			c0.1-0.4,0.1-0.8,0.2-1.1C7.6,0.2,7.9,0,8.2,0c0.3,0,0.5,0.3,0.5,0.6c-0.1,0.5-0.1,1-0.2,1.5C8.3,3,8.2,3.9,8,4.8
			C7.9,5.7,7.8,6.6,7.6,7.5c-0.1,0.9-0.3,1.8-0.4,2.7c-0.1,0.3-0.1,0.6-0.2,0.9c-0.1,0.3-0.3,0.5-0.6,0.5C6.1,11.6,5.9,11.4,6,11
			L6,11z"/>
		<path class="st0" d="M1.3,5.8C2,6.6,2.7,7.3,3.4,8c0.3,0.3,0.7,0.7,1,1c0.2,0.2,0.2,0.4,0.1,0.6C4.4,9.8,4.2,9.9,4,10
			c-0.2,0-0.4-0.1-0.5-0.2C3.3,9.5,3,9.2,2.7,8.9C1.9,8.1,1.1,7.2,0.2,6.3c-0.3-0.3-0.3-0.6,0-0.9c1.1-1.2,2.2-2.3,3.3-3.5
			c0.2-0.2,0.3-0.3,0.6-0.2c0.2,0.1,0.3,0.2,0.4,0.4c0.1,0.2,0,0.4-0.2,0.5C3.7,3.3,3,4,2.4,4.7C2,5.1,1.7,5.5,1.3,5.8L1.3,5.8z"/>
	</g>
</g>
</svg>
