<?xml version="1.0" encoding="utf-8"?>
<!-- Generator: Adobe Illustrator 27.3.1, SVG Export Plug-In . SVG Version: 6.00 Build 0)  -->
<svg version="1.1" id="Layer_2_00000111892807123616961810000016878053218313225146_"
	 xmlns="http://www.w3.org/2000/svg" xmlns:xlink="http://www.w3.org/1999/xlink" x="0px" y="0px" viewBox="0 0 9.5 12"
	 style="enable-background:new 0 0 9.5 12;" xml:space="preserve">
<style type="text/css">
	.st0{fill:#5C5C9E;}
</style>
<g id="Layer_2-2">
	<g>
		<path class="st0" d="M6,0v0.2c0,0.6,0,1.3,0,1.9c0,0.8,0.6,1.4,1.4,1.4c0.6,0,1.3,0,1.9,0h0.2v0.2c0,2.4,0,4.7,0,7.1
			c0,0.8-0.6,1.3-1.3,1.3c-2.3,0-4.5,0-6.8,0C0.6,12,0,11.5,0,10.7c0-3.1,0-6.2,0-9.4C0,0.6,0.6,0,1.3,0c1.5,0,3,0,4.5,0H6z
			 M3.5,7.7c0.4,0,0.8,0,1.3,0c0.3,0,0.4-0.2,0.4-0.4c0-0.3,0-0.6,0-0.9c0-0.6-0.5-1.2-1.1-1.2c-0.4,0-0.7,0-1.1,0
			c-0.6,0-1.1,0.5-1.2,1.1c0,0.3,0,0.7,0,1c0,0.3,0.2,0.5,0.5,0.5C2.6,7.7,3,7.7,3.5,7.7z M4.7,3.4c0-0.7-0.6-1.3-1.3-1.3
			c-0.7,0-1.3,0.6-1.3,1.3c0,0.7,0.6,1.3,1.3,1.3C4.1,4.7,4.7,4.2,4.7,3.4z M4.7,9C4.4,9,4.2,9,3.9,9C3.3,9,2.8,9,2.2,9
			C1.9,9,1.6,9.3,1.8,9.6C1.8,9.8,2,9.9,2.2,9.9c1.7,0,3.3,0,5,0c0,0,0.1,0,0.1,0c0.2,0,0.3-0.1,0.4-0.3s0-0.3-0.1-0.4
			C7.5,9.1,7.4,9,7.2,9C6.4,9,5.6,9,4.7,9L4.7,9z M6.9,5.6c0.1,0,0.3,0,0.4,0c0.2,0,0.4-0.2,0.4-0.4c0-0.2-0.2-0.4-0.4-0.4
			c-0.3,0-0.6,0-0.8,0C6.2,4.7,6,4.9,6,5.2s0.2,0.4,0.4,0.4C6.6,5.6,6.8,5.6,6.9,5.6L6.9,5.6z M6.9,6.9c-0.1,0-0.3,0-0.4,0
			C6.2,6.9,6,7.1,6,7.3c0,0.2,0.2,0.4,0.4,0.4c0.3,0,0.6,0,0.8,0c0.3,0,0.4-0.2,0.4-0.4c0-0.2-0.2-0.4-0.4-0.4
			C7.2,6.9,7,6.9,6.9,6.9z"/>
		<path class="st0" d="M9.2,2.6c-0.3,0-0.7,0-1,0c-0.3,0-0.6,0-0.9,0c-0.2,0-0.4-0.2-0.4-0.4c0-0.6,0-1.2,0-1.8c0,0,0,0,0,0
			C7.6,1.1,8.4,1.8,9.2,2.6L9.2,2.6z"/>
	</g>
</g>
</svg>
