<?xml version="1.0" encoding="UTF-8"?>
<!-- Generator: visioncortex VTracer 0.6.3 -->
<svg version="1.1" xmlns="http://www.w3.org/2000/svg" width="1280" height="1280">
<path d="M0 0 C0.05 55.11 0.08 110.22 0.1 165.33 C0.1 171.83 0.11 178.33 0.11 184.83 C0.11 186.13 0.11 187.42 0.11 188.75 C0.12 209.73 0.14 230.71 0.15 251.69 C0.17 273.2 0.18 294.71 0.19 316.23 C0.19 329.51 0.2 342.79 0.22 356.08 C0.23 365.17 0.23 374.27 0.23 383.37 C0.23 388.63 0.23 393.88 0.24 399.14 C0.25 403.94 0.25 408.75 0.24 413.56 C0.24 415.3 0.24 417.04 0.25 418.79 C0.26 421.15 0.25 423.51 0.25 425.87 C0.25 427.84 0.25 427.84 0.25 429.85 C0 433 0 433 -2 436 C-2.4 437.8 -2.72 439.62 -3 441.44 C-3.55 445.05 -4.3 447.77 -6 451 C-6.38 452.99 -6.73 454.99 -7 457 C-8.98 457.49 -8.98 457.49 -11 458 C-10.34 458.33 -9.68 458.66 -9 459 C-9.28 460.46 -9.58 461.92 -9.88 463.38 C-10.04 464.19 -10.2 465 -10.37 465.84 C-11 468 -11 468 -13 470 C-13.64 472.07 -13.64 472.07 -14 474 C-14.66 474 -15.32 474 -16 474 C-16.08 474.78 -16.16 475.57 -16.25 476.38 C-17 479 -17 479 -19.06 480.31 C-19.7 480.54 -20.34 480.77 -21 481 C-20.34 481.33 -19.68 481.66 -19 482 C-20.15 484.47 -21.05 486.05 -23 488 C-23.99 488 -24.98 488 -26 488 C-25.34 488.33 -24.68 488.66 -24 489 C-25.38 491.87 -26.92 494.56 -28.62 497.25 C-29.07 497.96 -29.52 498.66 -29.98 499.39 C-30.31 499.92 -30.65 500.45 -31 501 C-32.32 500.34 -33.64 499.68 -35 499 C-34.34 500.32 -33.68 501.64 -33 503 C-33.58 503.51 -34.17 504.02 -34.77 504.55 C-40.4 509.55 -45.8 514.71 -51.06 520.1 C-54.8 523.9 -54.8 523.9 -57 525 C-59.46 526.91 -61.8 528.8 -64 531 C-65.32 531 -66.64 531 -68 531 C-68.33 531.99 -68.66 532.98 -69 534 C-71.08 535.39 -71.08 535.39 -73.81 536.81 C-74.81 537.33 -75.81 537.85 -76.84 538.39 C-77.88 538.92 -78.93 539.45 -80 540 C-81.46 540.78 -81.46 540.78 -82.94 541.58 C-92.22 546.46 -101.84 549.5 -112.1 551.61 C-113.47 551.89 -114.83 552.21 -116.18 552.55 C-118 553 -118 553 -119 553 C-119.66 553.33 -120.32 553.66 -121 554 C-131.08 556.19 -141.12 556.28 -151.37 556.25 C-153.11 556.25 -154.85 556.26 -156.59 556.26 C-161.35 556.27 -166.12 556.26 -170.88 556.26 C-176.07 556.25 -181.25 556.26 -186.44 556.26 C-195.53 556.27 -204.62 556.27 -213.71 556.27 C-227.22 556.26 -240.73 556.26 -254.25 556.27 C-276.98 556.28 -299.72 556.28 -322.46 556.27 C-323.49 556.27 -323.49 556.27 -324.55 556.27 C-325.25 556.27 -325.94 556.27 -326.65 556.27 C-347.77 556.27 -368.89 556.27 -390.01 556.27 C-391.43 556.27 -392.84 556.27 -394.26 556.27 C-399.94 556.27 -405.63 556.27 -411.31 556.27 C-427.2 556.27 -443.09 556.27 -458.99 556.27 C-459.71 556.27 -460.43 556.27 -461.18 556.27 C-484.23 556.27 -507.29 556.27 -530.34 556.27 C-531.09 556.27 -531.84 556.27 -532.61 556.27 C-544.75 556.27 -556.89 556.26 -569.03 556.26 C-617.19 556.25 -665.35 556.25 -713.51 556.26 C-725.65 556.26 -737.79 556.27 -749.92 556.27 C-750.67 556.27 -751.42 556.27 -752.19 556.27 C-775.22 556.27 -798.26 556.27 -821.29 556.27 C-822.37 556.27 -822.37 556.27 -823.48 556.27 C-839.35 556.27 -855.22 556.27 -871.1 556.27 C-876.78 556.27 -882.45 556.27 -888.13 556.27 C-889.55 556.27 -890.96 556.27 -892.37 556.27 C-913.49 556.27 -934.6 556.27 -955.72 556.27 C-956.76 556.27 -956.76 556.27 -957.82 556.27 C-958.51 556.27 -959.2 556.27 -959.91 556.27 C-983.21 556.28 -1006.51 556.28 -1029.81 556.27 C-1043.24 556.26 -1056.68 556.26 -1070.11 556.27 C-1079.08 556.27 -1088.05 556.27 -1097.02 556.26 C-1102.13 556.26 -1107.25 556.25 -1112.36 556.26 C-1117.01 556.27 -1121.67 556.26 -1126.32 556.25 C-1127.99 556.25 -1129.66 556.25 -1131.34 556.26 C-1140.1 556.28 -1148.4 555.9 -1157 554 C-1159.33 553.63 -1161.66 553.31 -1164 553 C-1164 552.34 -1164 551.68 -1164 551 C-1164.6 551.03 -1165.21 551.07 -1165.83 551.11 C-1170.71 551.27 -1173.19 551.27 -1177 548 C-1179.67 547.75 -1179.67 547.75 -1182 548 C-1182 547.34 -1182 546.68 -1182 546 C-1183.27 546.12 -1183.27 546.12 -1184.56 546.25 C-1188.33 545.98 -1190.1 545.07 -1193.19 543.07 C-1195.38 541.78 -1197.64 540.94 -1200 540 C-1201.89 539.05 -1203.76 538.07 -1205.62 537.06 C-1206.57 536.56 -1207.51 536.05 -1208.48 535.54 C-1210.72 534.17 -1212.18 532.84 -1214 531 C-1214.99 530.67 -1215.98 530.34 -1217 530 C-1217 529.34 -1217 528.68 -1217 528 C-1217.89 527.74 -1218.78 527.49 -1219.69 527.23 C-1227.41 524.36 -1233.37 518.01 -1238.53 511.76 C-1239.97 509.97 -1239.97 509.97 -1241.69 508.39 C-1243 507 -1243 507 -1243 505 C-1243.87 504.63 -1243.87 504.63 -1244.75 504.25 C-1247.35 502.81 -1249.08 501.26 -1251 499 C-1251 498.01 -1251 497.02 -1251 496 C-1251.66 495.67 -1252.32 495.34 -1253 495 C-1256 491.42 -1256 491.42 -1256 489 C-1256.66 488.67 -1257.32 488.34 -1258 488 C-1261.16 483.63 -1263.67 478.85 -1266 474 C-1266.39 473.26 -1266.78 472.52 -1267.19 471.76 C-1269.85 466.68 -1271.85 461.77 -1273.32 456.23 C-1273.91 454.02 -1273.91 454.02 -1274.98 452.22 C-1276.5 448.9 -1276.96 445.39 -1277.56 441.81 C-1277.99 437.02 -1277.99 437.02 -1280 433 C-1280.1 430.71 -1280.12 428.42 -1280.12 426.13 C-1280.12 425.4 -1280.13 424.67 -1280.13 423.92 C-1280.13 421.44 -1280.12 418.96 -1280.12 416.48 C-1280.12 414.7 -1280.12 412.91 -1280.12 411.13 C-1280.13 406.21 -1280.12 401.28 -1280.12 396.36 C-1280.11 391.06 -1280.11 385.76 -1280.11 380.46 C-1280.11 371.27 -1280.11 362.08 -1280.11 352.89 C-1280.1 339.6 -1280.1 326.31 -1280.09 313.02 C-1280.09 291.47 -1280.08 269.91 -1280.08 248.35 C-1280.07 227.41 -1280.06 206.46 -1280.05 185.52 C-1280.05 184.23 -1280.05 182.94 -1280.05 181.61 C-1280.05 175.13 -1280.05 168.66 -1280.05 162.19 C-1280.04 108.46 -1280.02 54.73 -1280 1 C-1278.68 1 -1277.36 1 -1276 1 C-1276 1.66 -1276 2.32 -1276 3 C-1275.01 2.67 -1274.02 2.34 -1273 2 C-1270.91 2.67 -1270.91 2.67 -1268.5 3.75 C-1264.92 5.27 -1261.45 6.48 -1257.69 7.44 C-1252.34 8.82 -1247.33 10.78 -1242.2 12.81 C-1238.39 14.23 -1234.55 15.25 -1230.61 16.25 C-1227.13 17.25 -1223.86 18.64 -1220.52 20.04 C-1217.93 21.03 -1215.37 21.75 -1212.69 22.44 C-1207.34 23.82 -1202.33 25.78 -1197.2 27.81 C-1193.39 29.23 -1189.55 30.25 -1185.61 31.25 C-1182.13 32.25 -1178.86 33.64 -1175.52 35.04 C-1172.93 36.03 -1170.37 36.75 -1167.69 37.44 C-1162.29 38.83 -1157.22 40.81 -1152.04 42.86 C-1148.39 44.23 -1144.81 45.18 -1141 46 C-1141 46.66 -1141 47.32 -1141 48 C-1140.01 47.67 -1139.02 47.34 -1138 47 C-1135.91 47.67 -1135.91 47.67 -1133.5 48.75 C-1128.9 50.7 -1124.33 52.09 -1119.5 53.34 C-1116.62 54.1 -1113.81 55.01 -1111 56 C-1111 56.66 -1111 57.32 -1111 58 C-1110.01 57.67 -1109.02 57.34 -1108 57 C-1105.59 57.78 -1105.59 57.78 -1102.94 58.94 C-1099.58 60.5 -1099.58 60.5 -1096 61 C-1096 61.66 -1096 62.32 -1096 63 C-1095.01 62.67 -1094.02 62.34 -1093 62 C-1090.59 62.78 -1090.59 62.78 -1087.94 63.94 C-1084.58 65.5 -1084.58 65.5 -1081 66 C-1081 66.66 -1081 67.32 -1081 68 C-1080.01 67.67 -1079.02 67.34 -1078 67 C-1075.59 67.78 -1075.59 67.78 -1072.94 68.94 C-1069.58 70.5 -1069.58 70.5 -1066 71 C-1066 71.66 -1066 72.32 -1066 73 C-1065.01 72.67 -1064.02 72.34 -1063 72 C-1060.94 72.67 -1060.94 72.67 -1058.56 73.75 C-1053.71 75.81 -1048.89 77.12 -1043.76 78.29 C-1040.35 79.17 -1037.23 80.34 -1034.12 82 C-1031.19 83.38 -1028.12 84.11 -1025 85 C-1023.66 85.49 -1022.33 85.99 -1021 86.5 C-1018.5 87.46 -1016.09 88.26 -1013.5 89 C-1010.23 89.93 -1007.14 91.06 -1003.97 92.28 C-1002.17 92.94 -1000.34 93.48 -998.5 94 C-995.23 94.93 -992.14 96.06 -988.97 97.28 C-987.17 97.94 -985.34 98.48 -983.5 99 C-980.23 99.93 -977.14 101.06 -973.97 102.28 C-972.17 102.94 -970.34 103.48 -968.5 104 C-965.23 104.93 -962.14 106.06 -958.97 107.28 C-957.17 107.94 -955.34 108.48 -953.5 109 C-950.23 109.93 -947.14 111.06 -943.97 112.28 C-942.17 112.94 -940.34 113.48 -938.5 114 C-935.23 114.93 -932.14 116.06 -928.97 117.28 C-927.17 117.94 -925.34 118.48 -923.5 119 C-920.23 119.93 -917.14 121.06 -913.97 122.28 C-912.17 122.94 -910.34 123.48 -908.5 124 C-905.23 124.93 -902.14 126.06 -898.97 127.28 C-897.17 127.94 -895.34 128.48 -893.5 129 C-890.23 129.93 -887.14 131.06 -883.97 132.28 C-882.17 132.94 -880.34 133.48 -878.5 134 C-875.23 134.93 -872.14 136.06 -868.97 137.28 C-867.17 137.94 -865.34 138.48 -863.5 139 C-860.23 139.93 -857.14 141.06 -853.97 142.28 C-852.17 142.94 -850.34 143.48 -848.5 144 C-845.23 144.93 -842.14 146.06 -838.97 147.28 C-837.17 147.94 -835.34 148.48 -833.5 149 C-830.23 149.93 -827.14 151.06 -823.97 152.28 C-822.17 152.94 -820.34 153.48 -818.5 154 C-815.23 154.93 -812.14 156.06 -808.97 157.28 C-807.17 157.94 -805.34 158.48 -803.5 159 C-800.23 159.93 -797.14 161.06 -793.97 162.28 C-792.17 162.94 -790.34 163.48 -788.5 164 C-785.23 164.93 -782.14 166.06 -778.97 167.28 C-777.17 167.94 -775.34 168.48 -773.5 169 C-770.23 169.93 -767.14 171.06 -763.97 172.28 C-762.17 172.94 -760.34 173.48 -758.5 174 C-755.23 174.93 -752.14 176.06 -748.97 177.28 C-747.17 177.94 -745.34 178.48 -743.5 179 C-740.23 179.93 -737.14 181.06 -733.97 182.28 C-732.17 182.94 -730.34 183.48 -728.5 184 C-725.23 184.93 -722.14 186.06 -718.97 187.28 C-717.17 187.94 -715.34 188.48 -713.5 189 C-710.91 189.74 -708.5 190.54 -706 191.5 C-702.38 192.89 -698.73 193.94 -695 195 C-693.06 195.64 -691.12 196.28 -689.19 196.94 C-684.55 198.5 -679.91 199.97 -675.22 201.35 C-673.37 201.89 -671.53 202.47 -669.69 203.06 C-649.12 208.29 -623.75 208.82 -603.86 200.65 C-600.99 199.64 -598 199.43 -595 199 C-594.67 198.34 -594.34 197.68 -594 197 C-591.6 196.15 -591.6 196.15 -588.62 195.38 C-587.65 195.11 -586.67 194.85 -585.66 194.59 C-583 194 -583 194 -580 194 C-579.67 193.34 -579.34 192.68 -579 192 C-576.6 191.15 -576.6 191.15 -573.62 190.38 C-572.65 190.11 -571.67 189.85 -570.66 189.59 C-568 189 -568 189 -565 189 C-564.67 188.34 -564.34 187.68 -564 187 C-561.6 186.15 -561.6 186.15 -558.62 185.38 C-557.65 185.11 -556.67 184.85 -555.66 184.59 C-553 184 -553 184 -550 184 C-549.67 183.34 -549.34 182.68 -549 182 C-546.6 181.15 -546.6 181.15 -543.62 180.38 C-542.65 180.11 -541.67 179.85 -540.66 179.59 C-538 179 -538 179 -535 179 C-534.67 178.34 -534.34 177.68 -534 177 C-531.6 176.15 -531.6 176.15 -528.62 175.38 C-527.65 175.11 -526.67 174.85 -525.66 174.59 C-523 174 -523 174 -520 174 C-519.67 173.34 -519.34 172.68 -519 172 C-516.6 171.15 -516.6 171.15 -513.62 170.38 C-512.65 170.11 -511.67 169.85 -510.66 169.59 C-508 169 -508 169 -505 169 C-504.67 168.34 -504.34 167.68 -504 167 C-501.6 166.15 -501.6 166.15 -498.62 165.38 C-497.65 165.11 -496.67 164.85 -495.66 164.59 C-493 164 -493 164 -490 164 C-489.67 163.34 -489.34 162.68 -489 162 C-486.6 161.15 -486.6 161.15 -483.62 160.38 C-482.65 160.11 -481.67 159.85 -480.66 159.59 C-478 159 -478 159 -475 159 C-474.67 158.34 -474.34 157.68 -474 157 C-471.6 156.15 -471.6 156.15 -468.62 155.38 C-467.65 155.11 -466.67 154.85 -465.66 154.59 C-463 154 -463 154 -460 154 C-459.67 153.34 -459.34 152.68 -459 152 C-456.6 151.15 -456.6 151.15 -453.62 150.38 C-452.65 150.11 -451.67 149.85 -450.66 149.59 C-448 149 -448 149 -445 149 C-444.67 148.34 -444.34 147.68 -444 147 C-441.6 146.15 -441.6 146.15 -438.62 145.38 C-437.65 145.11 -436.67 144.85 -435.66 144.59 C-433 144 -433 144 -430 144 C-429.67 143.34 -429.34 142.68 -429 142 C-426.6 141.15 -426.6 141.15 -423.62 140.38 C-422.65 140.11 -421.67 139.85 -420.66 139.59 C-418 139 -418 139 -415 139 C-414.67 138.34 -414.34 137.68 -414 137 C-411.6 136.15 -411.6 136.15 -408.62 135.38 C-407.65 135.11 -406.67 134.85 -405.66 134.59 C-403 134 -403 134 -400 134 C-399.67 133.34 -399.34 132.68 -399 132 C-396.6 131.15 -396.6 131.15 -393.62 130.38 C-392.65 130.11 -391.67 129.85 -390.66 129.59 C-388 129 -388 129 -385 129 C-384.67 128.34 -384.34 127.68 -384 127 C-381.6 126.15 -381.6 126.15 -378.62 125.38 C-377.65 125.11 -376.67 124.85 -375.66 124.59 C-373 124 -373 124 -370 124 C-369.67 123.34 -369.34 122.68 -369 122 C-366.6 121.15 -366.6 121.15 -363.62 120.38 C-362.65 120.11 -361.67 119.85 -360.66 119.59 C-358 119 -358 119 -355 119 C-354.67 118.34 -354.34 117.68 -354 117 C-351.6 116.15 -351.6 116.15 -348.62 115.38 C-347.65 115.11 -346.67 114.85 -345.66 114.59 C-343 114 -343 114 -340 114 C-339.67 113.34 -339.34 112.68 -339 112 C-337.18 111.47 -337.18 111.47 -334.88 111.06 C-331.37 110.35 -328.39 109.36 -325.13 107.85 C-322.21 106.69 -319.22 105.9 -316.19 105.06 C-311.08 103.65 -306.25 101.98 -301.36 99.94 C-296.53 98.02 -291.5 96.71 -286.5 95.29 C-282.23 94.05 -278.11 92.69 -274 91 C-268.28 88.65 -262.44 86.98 -256.5 85.29 C-252.23 84.05 -248.11 82.69 -244 81 C-236.76 78.03 -229.41 75.95 -221.71 74.53 C-221.15 74.35 -220.58 74.18 -220 74 C-219.67 73.34 -219.34 72.68 -219 72 C-215.36 70.76 -211.94 69.99 -208.12 69.5 C-207.09 69.34 -206.06 69.17 -205 69 C-204.67 68.34 -204.34 67.68 -204 67 C-200.36 65.76 -196.94 64.99 -193.12 64.5 C-192.09 64.34 -191.06 64.17 -190 64 C-189.67 63.34 -189.34 62.68 -189 62 C-185.36 60.76 -181.94 59.99 -178.12 59.5 C-176.58 59.25 -176.58 59.25 -175 59 C-174.67 58.34 -174.34 57.68 -174 57 C-170.36 55.76 -166.94 54.99 -163.12 54.5 C-161.58 54.25 -161.58 54.25 -160 54 C-159.67 53.34 -159.34 52.68 -159 52 C-155.36 50.76 -151.94 49.99 -148.12 49.5 C-146.58 49.25 -146.58 49.25 -145 49 C-144.67 48.34 -144.34 47.68 -144 47 C-140.36 45.76 -136.94 44.99 -133.12 44.5 C-131.58 44.25 -131.58 44.25 -130 44 C-129.67 43.34 -129.34 42.68 -129 42 C-125.36 40.76 -121.94 39.99 -118.12 39.5 C-116.58 39.25 -116.58 39.25 -115 39 C-114.67 38.34 -114.34 37.68 -114 37 C-110.36 35.76 -106.94 34.99 -103.12 34.5 C-101.58 34.25 -101.58 34.25 -100 34 C-99.67 33.34 -99.34 32.68 -99 32 C-95.36 30.76 -91.94 29.99 -88.12 29.5 C-86.58 29.25 -86.58 29.25 -85 29 C-84.67 28.34 -84.34 27.68 -84 27 C-80.36 25.76 -76.94 24.99 -73.12 24.5 C-71.58 24.25 -71.58 24.25 -70 24 C-69.67 23.34 -69.34 22.68 -69 22 C-65.36 20.76 -61.94 19.99 -58.12 19.5 C-56.58 19.25 -56.58 19.25 -55 19 C-54.67 18.34 -54.34 17.68 -54 17 C-50.36 15.76 -46.94 14.99 -43.12 14.5 C-42.09 14.34 -41.06 14.17 -40 14 C-39.67 13.34 -39.34 12.68 -39 12 C-35.36 10.76 -31.94 9.99 -28.12 9.5 C-27.09 9.34 -26.06 9.17 -25 9 C-24.67 8.34 -24.34 7.68 -24 7 C-20.36 5.76 -16.94 4.99 -13.12 4.5 C-11.58 4.25 -11.58 4.25 -10 4 C-9.67 3.34 -9.34 2.68 -9 2 C-2.89 0 -2.89 0 0 0 Z M-13 462 C-12 464 -12 464 -12 464 Z M-1181 546 C-1177 547 -1177 547 -1177 547 Z M-115 549 C-115 549.33 -115 549.66 -115 550 C-113.35 550 -111.7 550 -110 550 C-110 549.67 -110 549.34 -110 549 C-111.65 549 -113.3 549 -115 549 Z M-1163 551 C-1163 551.33 -1163 551.66 -1163 552 C-1161.35 552 -1159.7 552 -1158 552 C-1158 551.67 -1158 551.34 -1158 551 C-1159.65 551 -1161.3 551 -1163 551 Z M-149 554 C-149 554.33 -149 554.66 -149 555 C-147.02 555 -145.04 555 -143 555 C-143 554.67 -143 554.34 -143 554 C-144.98 554 -146.96 554 -149 554 Z " fill="#5A5B9C" transform="translate(1280,618)"/>
<path d="M0 0 C0.66 0.33 1.32 0.66 2 1 C2.33 0.67 2.66 0.34 3 0 C6.01 -0.1 8.99 -0.13 12 -0.12 C13.44 -0.12 13.44 -0.12 14.9 -0.12 C18.13 -0.12 21.36 -0.12 24.59 -0.11 C26.9 -0.11 29.21 -0.11 31.51 -0.11 C37.79 -0.11 44.07 -0.11 50.35 -0.1 C56.91 -0.1 63.46 -0.09 70.02 -0.09 C81.03 -0.09 92.04 -0.08 103.05 -0.08 C114.39 -0.07 125.74 -0.06 137.08 -0.05 C137.78 -0.05 138.48 -0.05 139.2 -0.05 C142.7 -0.05 146.21 -0.05 149.71 -0.05 C178.81 -0.04 207.9 -0.02 237 0 C237 0.66 237 1.32 237 2 C237.68 1.94 238.36 1.88 239.06 1.82 C250.54 1.29 260.87 4.75 271 10 C273.34 11.03 275.69 12.04 278.05 13.04 C280 14 280 14 282 16 C282.99 16.33 283.98 16.66 285 17 C285 17.66 285 18.32 285 19 C287.33 20.21 289.5 21.17 292 22 C292 22.66 292 23.32 292 24 C292.68 24.16 293.36 24.33 294.06 24.5 C298.42 26.72 300.95 30.24 304 34 C307.03 38.05 307.03 38.05 311 41 C312.02 42.66 313.02 44.32 314 46 C314.66 46.66 315.32 47.32 316 48 C316.31 48.8 316.62 49.61 316.94 50.44 C317.8 53.01 317.8 53.01 319.56 54.44 C321.66 56.71 321.67 59 322 62 C322.66 62 323.32 62 324 62 C327.26 69.11 329.49 75.19 330 83 C330.33 83.33 330.66 83.66 331 84 C331.28 86.48 331.45 88.96 331.62 91.46 C331.84 93.96 331.84 93.96 333 95.79 C334.28 98.62 334.27 100.84 334.3 103.95 C334.33 105.74 334.33 105.74 334.35 107.58 C334.37 109.51 334.37 109.51 334.38 111.48 C334.4 112.82 334.41 114.15 334.43 115.49 C334.48 119 334.51 122.52 334.54 126.03 C334.59 131.66 334.66 137.3 334.73 142.93 C334.75 144.9 334.77 146.87 334.79 148.84 C334.8 150.03 334.81 151.22 334.83 152.44 C334.84 153.49 334.85 154.55 334.86 155.63 C334.73 157.96 334.73 157.96 336 159 C337.54 159.1 339.09 159.13 340.63 159.14 C341.64 159.14 342.65 159.15 343.69 159.15 C344.81 159.15 345.93 159.15 347.09 159.15 C348.27 159.16 349.45 159.16 350.66 159.16 C353.95 159.18 357.24 159.18 360.53 159.19 C364.08 159.19 367.62 159.2 371.16 159.21 C377.31 159.23 383.45 159.25 389.6 159.26 C398.48 159.28 407.37 159.3 416.25 159.33 C430.67 159.37 445.08 159.41 459.49 159.45 C460.36 159.45 461.22 159.45 462.11 159.45 C468.24 159.47 474.37 159.48 480.5 159.5 C487.5 159.52 494.5 159.53 501.51 159.55 C502.37 159.55 503.23 159.56 504.12 159.56 C518.48 159.59 532.84 159.63 547.2 159.68 C556.06 159.7 564.93 159.73 573.8 159.74 C579.87 159.76 585.94 159.77 592.01 159.79 C595.52 159.8 599.02 159.81 602.53 159.82 C606.33 159.82 610.12 159.83 613.91 159.85 C615.04 159.85 616.16 159.85 617.31 159.85 C618.32 159.85 619.33 159.86 620.37 159.86 C621.24 159.87 622.12 159.87 623.02 159.87 C625 160 625 160 626 161 C628.1 161.16 630.21 161.28 632.31 161.38 C642.08 162.01 650.96 164.36 660 168 C661.39 168.52 662.79 169.04 664.19 169.56 C667.14 170.66 670.07 171.83 673 173 C673.86 173.33 674.72 173.66 675.61 174 C676.46 174.33 677.31 174.66 678.19 175 C679.05 175.33 679.91 175.66 680.79 176 C683 177 683 177 685 179 C686.52 179.91 688.07 180.78 689.62 181.62 C690.44 182.07 691.26 182.52 692.1 182.98 C692.73 183.31 693.35 183.65 694 184 C694 184.66 694 185.32 694 186 C696.33 187.21 698.5 188.17 701 189 C701 189.66 701 190.32 701 191 C701.68 191.19 702.36 191.38 703.06 191.57 C707.18 193.57 709.86 196.54 713 199.81 C713.6 200.43 714.21 201.05 714.83 201.68 C716.01 202.89 717.19 204.1 718.37 205.32 C721.11 208.14 723.87 210.93 726.73 213.62 C729.86 216.58 731.55 218.87 733 223 C733.71 223.71 733.71 223.71 734.44 224.44 C736.62 226.62 737.63 229.25 739 232 C739.66 232.33 740.32 232.66 741 233 C741.71 234.65 742.37 236.32 743 238 C744.31 240.77 745.64 243.53 746.98 246.28 C748 249 748 249 747.96 251.72 C747.98 252.85 747.98 252.85 748 254 C748.99 254.66 749.98 255.32 751 256 C751.88 257.99 751.88 257.99 752.56 260.31 C753.29 262.73 754.02 265.04 754.99 267.37 C756.18 270.46 756.86 273.52 757.56 276.75 C758.13 280.69 758.13 280.69 760 284 C760.1 285.91 760.12 287.83 760.12 289.74 C760.12 290.99 760.12 292.23 760.12 293.52 C760.12 294.91 760.12 296.31 760.11 297.7 C760.11 299.16 760.11 300.62 760.11 302.07 C760.11 306.05 760.11 310.02 760.1 313.99 C760.1 318.13 760.09 322.28 760.09 326.42 C760.09 334.28 760.08 342.13 760.07 349.99 C760.06 358.93 760.06 367.87 760.05 376.81 C760.04 395.21 760.02 413.6 760 432 C759.19 432.19 758.38 432.39 757.55 432.59 C756.48 432.85 755.41 433.11 754.31 433.38 C753.25 433.63 752.2 433.89 751.11 434.15 C747.46 435.15 744.09 436.51 740.61 437.97 C736.64 439.54 732.57 440.71 728.48 441.94 C722.92 443.64 717.42 445.5 711.91 447.36 C708.77 448.41 705.64 449.46 702.5 450.5 C701.26 450.91 700.03 451.33 698.75 451.75 C575 493 451.25 534.25 162.5 630.5 C161.27 630.91 160.04 631.32 158.78 631.74 C156.19 632.6 153.6 633.46 151 634.32 C150.34 634.54 149.68 634.76 149 634.98 C147.18 635.59 145.36 636.19 143.54 636.79 C141.73 637.41 139.93 638.03 138.18 638.8 C132.31 641.33 126.9 641.45 120.56 641.38 C119.58 641.39 118.59 641.4 117.58 641.41 C111.17 641.38 105.92 640.41 100 638 C95.08 636.08 90.22 634.47 85.12 633.06 C80.1 631.66 75.35 630.01 70.54 628 C66.59 626.45 62.54 625.28 58.48 624.06 C52.92 622.36 47.42 620.5 41.91 618.64 C38.77 617.59 35.64 616.54 32.5 615.5 C-37.5 592.17 -107.5 568.83 -177.5 545.5 C-178.73 545.09 -179.95 544.68 -181.22 544.26 C-183.82 543.39 -186.43 542.52 -189.03 541.64 C-189.7 541.42 -190.36 541.2 -191.04 540.97 C-192.88 540.35 -194.72 539.73 -196.56 539.11 C-200.02 537.99 -203.5 536.98 -207 536 C-207 535.34 -207 534.68 -207 534 C-208.21 534.09 -208.21 534.09 -209.44 534.19 C-213.98 533.95 -217.77 532.58 -222 531 C-222 530.34 -222 529.68 -222 529 C-222.93 529.04 -223.86 529.08 -224.81 529.12 C-228 529 -228 529 -231 527 C-232.99 526.61 -234.99 526.27 -237 526 C-237 525.34 -237 524.68 -237 524 C-237.93 524.04 -238.86 524.08 -239.81 524.12 C-243 524 -243 524 -246 522 C-247.99 521.61 -249.99 521.27 -252 521 C-252 520.34 -252 519.68 -252 519 C-252.93 519.04 -253.86 519.08 -254.81 519.12 C-258 519 -258 519 -261 517 C-262.99 516.61 -264.99 516.27 -267 516 C-267 515.34 -267 514.68 -267 514 C-268.39 514.06 -268.39 514.06 -269.81 514.12 C-273 514 -273 514 -276 512 C-277.99 511.61 -279.99 511.27 -282 511 C-282 510.34 -282 509.68 -282 509 C-283.39 509.06 -283.39 509.06 -284.81 509.12 C-288 509 -288 509 -291 507 C-292.99 506.61 -294.99 506.27 -297 506 C-297 505.34 -297 504.68 -297 504 C-298.39 504.06 -298.39 504.06 -299.81 504.12 C-303 504 -303 504 -306 502 C-307.99 501.61 -309.99 501.27 -312 501 C-312 500.34 -312 499.68 -312 499 C-313.39 499.06 -313.39 499.06 -314.81 499.12 C-318 499 -318 499 -321 497 C-322.99 496.61 -324.99 496.27 -327 496 C-327 495.34 -327 494.68 -327 494 C-328.39 494.06 -328.39 494.06 -329.81 494.12 C-333 494 -333 494 -336 492 C-337.99 491.61 -339.99 491.27 -342 491 C-342 490.34 -342 489.68 -342 489 C-343.39 489.06 -343.39 489.06 -344.81 489.12 C-348 489 -348 489 -351 487 C-352.99 486.61 -354.99 486.27 -357 486 C-357 485.34 -357 484.68 -357 484 C-358.39 484.06 -358.39 484.06 -359.81 484.12 C-363 484 -363 484 -366 482 C-367.99 481.61 -369.99 481.27 -372 481 C-372 480.34 -372 479.68 -372 479 C-373.39 479.06 -373.39 479.06 -374.81 479.12 C-378 479 -378 479 -381 477 C-382.99 476.61 -384.99 476.27 -387 476 C-387 475.34 -387 474.68 -387 474 C-388.39 474.06 -388.39 474.06 -389.81 474.12 C-393 474 -393 474 -396 472 C-397.99 471.61 -399.99 471.27 -402 471 C-402 470.34 -402 469.68 -402 469 C-403.39 469.06 -403.39 469.06 -404.81 469.12 C-408 469 -408 469 -411 467 C-412.99 466.61 -414.99 466.27 -417 466 C-417 465.34 -417 464.68 -417 464 C-418.39 464.06 -418.39 464.06 -419.81 464.12 C-423 464 -423 464 -426 462 C-427.99 461.61 -429.99 461.27 -432 461 C-432 460.34 -432 459.68 -432 459 C-433.39 459.06 -433.39 459.06 -434.81 459.12 C-438 459 -438 459 -441 457 C-442.99 456.61 -444.99 456.27 -447 456 C-447 455.34 -447 454.68 -447 454 C-448.39 454.06 -448.39 454.06 -449.81 454.12 C-453 454 -453 454 -456 452 C-457.99 451.61 -459.99 451.27 -462 451 C-462 450.34 -462 449.68 -462 449 C-463.39 449.06 -463.39 449.06 -464.81 449.12 C-468 449 -468 449 -471 447 C-472.99 446.61 -474.99 446.27 -477 446 C-477 445.34 -477 444.68 -477 444 C-478.39 444.06 -478.39 444.06 -479.81 444.12 C-483 444 -483 444 -486 442 C-487.99 441.61 -489.99 441.27 -492 441 C-492 440.34 -492 439.68 -492 439 C-493.39 439.06 -493.39 439.06 -494.81 439.12 C-498 439 -498 439 -501 437 C-502.99 436.61 -504.99 436.27 -507 436 C-507 435.34 -507 434.68 -507 434 C-508.27 434.06 -508.27 434.06 -509.56 434.12 C-513.32 433.99 -516.41 433.08 -520 432 C-520.09 412.7 -520.16 393.4 -520.21 374.1 C-520.23 365.14 -520.26 356.18 -520.3 347.22 C-520.34 339.4 -520.37 331.58 -520.38 323.77 C-520.38 319.63 -520.39 315.5 -520.42 311.37 C-520.45 307.46 -520.46 303.56 -520.45 299.66 C-520.45 298.24 -520.46 296.82 -520.48 295.39 C-520.57 286.44 -519.49 278.74 -516.96 270.23 C-516.14 267.49 -515.51 264.81 -515 262 C-514.34 262 -513.68 262 -513 262 C-512.81 260.48 -512.81 260.48 -512.62 258.94 C-512.02 255.12 -511.13 251.68 -510 248 C-509.34 248 -508.68 248 -508 248 C-507.01 244.7 -506.02 241.4 -505 238 C-504.34 238 -503.68 238 -503 238 C-502.69 237.05 -502.38 236.1 -502.06 235.12 C-501 232 -501 232 -500 230 C-499.34 230 -498.68 230 -498 230 C-497.73 229.07 -497.46 228.14 -497.19 227.19 C-496.01 224.02 -495.32 223.23 -493 221 C-492.44 219.93 -491.89 218.86 -491.31 217.75 C-489.16 213.79 -486.17 211.29 -482.71 208.48 C-480.89 207.09 -480.89 207.09 -480 205 C-479.34 205 -478.68 205 -478 205 C-477.67 204.01 -477.34 203.02 -477 202 C-475.29 200.35 -475.29 200.35 -473.19 198.62 C-470.72 196.55 -468.81 194.75 -466.81 192.19 C-464.71 189.65 -463.06 189.1 -460 188 C-459.53 187.53 -459.05 187.05 -458.56 186.56 C-456.38 184.38 -453.75 183.37 -451 182 C-450.67 181.34 -450.34 180.68 -450 180 C-443.77 177 -443.77 177 -440 177 C-440 176.34 -440 175.68 -440 175 C-438.98 174.64 -438.98 174.64 -437.95 174.27 C-432.29 172.23 -426.71 170.1 -421.19 167.73 C-419 167 -419 167 -415 167 C-414.67 166.34 -414.34 165.68 -414 165 C-405.7 162.46 -397.29 161.61 -388.67 161.21 C-386.08 161.3 -386.08 161.3 -385 160 C-383.46 159.9 -381.91 159.87 -380.36 159.86 C-379.35 159.86 -378.35 159.85 -377.31 159.84 C-375.62 159.84 -375.62 159.84 -373.91 159.84 C-372.73 159.84 -371.55 159.83 -370.33 159.83 C-367.04 159.81 -363.74 159.81 -360.45 159.8 C-356.91 159.79 -353.36 159.78 -349.81 159.76 C-343.67 159.74 -337.52 159.72 -331.37 159.71 C-322.48 159.69 -313.6 159.66 -304.71 159.63 C-290.29 159.58 -275.87 159.54 -261.45 159.5 C-247.44 159.46 -233.43 159.42 -219.42 159.37 C-218.56 159.37 -217.69 159.37 -216.8 159.36 C-212.47 159.35 -208.15 159.34 -203.82 159.32 C-167.88 159.21 -131.94 159.1 -96 159 C-95.67 138.87 -95.34 118.74 -95 98 C-94.34 98 -93.68 98 -93 98 C-93.33 97.01 -93.66 96.02 -94 95 C-93.96 93.21 -93.85 91.41 -93.69 89.62 C-93.61 88.69 -93.53 87.75 -93.45 86.79 C-92.99 83.91 -92.12 81.68 -91 79 C-90.27 76.57 -89.56 74.13 -88.88 71.69 C-88.52 70.43 -88.17 69.18 -87.8 67.89 C-87.54 66.93 -87.27 65.98 -87 65 C-86.34 65 -85.68 65 -85 65 C-84.9 64.3 -84.79 63.6 -84.69 62.88 C-83.13 56.35 -79.16 50.22 -75 45 C-74.34 45 -73.68 45 -73 45 C-72.83 44.18 -72.66 43.36 -72.49 42.52 C-70.38 37.54 -67.01 34.43 -63.19 30.69 C-62.48 29.96 -61.76 29.23 -61.03 28.48 C-60.33 27.79 -59.64 27.1 -58.92 26.39 C-57.97 25.45 -57.97 25.45 -57 24.49 C-54.67 22.76 -52.85 22.36 -50 22 C-50 21.34 -50 20.68 -50 20 C-44.86 15.9 -38.68 11.74 -32.19 10.44 C-31.1 10.22 -31.1 10.22 -30 10 C-29.67 9.34 -29.34 8.68 -29 8 C-26.99 7.25 -24.94 6.6 -22.88 6 C-21.1 5.48 -21.1 5.48 -19.29 4.95 C-17.66 4.48 -17.66 4.48 -16 4 C-14.14 3.38 -14.14 3.38 -12.25 2.75 C-8.11 1.8 -4.22 1.83 0 2 C0 1.34 0 0.68 0 0 Z M329 84 C329 86.64 329 89.28 329 92 C329.33 92 329.66 92 330 92 C330 89.36 330 86.72 330 84 C329.67 84 329.34 84 329 84 Z M14 111 C13.69 113.09 13.69 113.09 13.74 115.51 C13.73 116.44 13.73 117.38 13.72 118.34 C13.73 119.35 13.73 120.36 13.73 121.41 C13.73 122.44 13.73 123.48 13.73 124.54 C13.73 126.74 13.73 128.93 13.74 131.12 C13.75 134.49 13.74 137.85 13.73 141.21 C13.73 143.34 13.73 145.47 13.73 147.59 C13.73 149.11 13.73 149.11 13.72 150.66 C13.73 151.59 13.73 152.53 13.74 153.49 C13.74 154.31 13.74 155.14 13.75 155.99 C13.82 158.23 13.82 158.23 16 160 C18.74 160.2 21.39 160.26 24.13 160.25 C25.41 160.25 25.41 160.25 26.71 160.25 C29.57 160.26 32.44 160.25 35.3 160.24 C37.35 160.24 39.4 160.25 41.45 160.25 C47.02 160.25 52.6 160.25 58.17 160.24 C63.99 160.23 69.81 160.23 75.63 160.23 C85.41 160.23 95.19 160.22 104.96 160.21 C116.28 160.19 127.6 160.18 138.92 160.19 C149.79 160.19 160.66 160.18 171.53 160.17 C176.16 160.17 180.8 160.17 185.43 160.17 C190.89 160.17 196.34 160.16 201.79 160.15 C203.8 160.15 205.81 160.15 207.81 160.15 C210.54 160.15 213.27 160.14 216 160.13 C217.2 160.14 217.2 160.14 218.44 160.14 C222.01 160.46 222.01 160.46 225 159 C225.1 157.51 225.13 156.01 225.13 154.51 C225.13 153.08 225.13 153.08 225.14 151.62 C225.14 150.58 225.13 149.54 225.13 148.47 C225.13 147.41 225.13 146.35 225.14 145.26 C225.14 143.02 225.13 140.77 225.13 138.53 C225.13 135.08 225.13 131.64 225.14 128.19 C225.14 126.01 225.13 123.84 225.13 121.66 C225.14 120.11 225.14 120.11 225.14 118.52 C225.14 117.56 225.13 116.6 225.13 115.62 C225.13 114.77 225.13 113.93 225.13 113.06 C225.13 110.94 225.13 110.94 224 109 C196.91 108.95 169.83 108.92 142.74 108.9 C130.17 108.89 117.59 108.87 105.02 108.85 C94.06 108.83 83.1 108.82 72.15 108.81 C66.34 108.81 60.54 108.8 54.73 108.79 C49.27 108.78 43.82 108.77 38.36 108.77 C36.35 108.77 34.34 108.77 32.33 108.76 C29.6 108.75 26.87 108.75 24.14 108.76 C23.33 108.75 22.53 108.75 21.7 108.74 C17.39 108.6 17.39 108.6 14 111 Z M12 112 C13 116 13 116 13 116 Z M12 155 C13 158 13 158 13 158 Z M332 155 C333 158 333 158 333 158 Z M729 219 C730 221 730 221 730 221 Z M739 234 C740 236 740 236 740 236 Z M109 639 C109 639.33 109 639.66 109 640 C111.31 640 113.62 640 116 640 C116 639.67 116 639.34 116 639 C113.69 639 111.38 639 109 639 Z M120 639 C120 639.33 120 639.66 120 640 C123.63 640 127.26 640 131 640 C131 639.67 131 639.34 131 639 C127.37 639 123.74 639 120 639 Z " fill="#5A5B9C" transform="translate(520,105)"/>
<path d="M0 0 C0.99 0.33 1.98 0.66 3 1 C-1.29 5.29 -5.58 9.58 -10 14 C-10.66 13.34 -11.32 12.68 -12 12 C-10.38 9.96 -8.71 7.96 -7 6 C-6.34 6 -5.68 6 -5 6 C-4.67 5.01 -4.34 4.02 -4 3 C-2.12 1.25 -2.12 1.25 0 0 Z " fill="#6668A9" transform="translate(47,304)"/>
<path d="M0 0 C-1.47 5.01 -4.28 7.52 -8 11 C-8.99 10.67 -9.98 10.34 -11 10 C-10.06 8.89 -9.13 7.79 -8.19 6.69 C-7.67 6.07 -7.14 5.46 -6.61 4.82 C-2.36 0 -2.36 0 0 0 Z " fill="#53558B" transform="translate(465,130)"/>
<path d="M0 0 C0.66 0.33 1.32 0.66 2 1 C-2.62 5.62 -7.24 10.24 -12 15 C-13.32 14.34 -14.64 13.68 -16 13 C-15.29 12.79 -14.59 12.57 -13.86 12.35 C-10.28 10.66 -7.88 8.21 -5.19 5.38 C-4.69 4.86 -4.18 4.34 -3.67 3.81 C-2.44 2.55 -1.22 1.28 0 0 Z " fill="#2F3053" transform="translate(49,305)"/>
<path d="M0 0 C1.46 -0.03 2.92 -0.05 4.38 -0.06 C5.19 -0.07 6 -0.09 6.84 -0.1 C9 0 9 0 11 1 C11 1.66 11 2.32 11 3 C7.37 3 3.74 3 0 3 C0 2.01 0 1.02 0 0 Z " fill="#62659C" transform="translate(760,107)"/>
<path d="M0 0 C0 0.33 0 0.66 0 1 C-4.62 1 -9.24 1 -14 1 C-14 0.34 -14 -0.32 -14 -1 C-4.59 -2.52 -4.59 -2.52 0 0 Z " fill="#8285CD" transform="translate(1164,269)"/>
<path d="M0 0 C4.62 0 9.24 0 14 0 C14 0.33 14 0.66 14 1 C9.38 1 4.76 1 0 1 C0 0.67 0 0.34 0 0 Z " fill="#000002" transform="translate(633,747)"/>
<path d="M0 0 C0.33 0 0.66 0 1 0 C1 2.64 1 5.28 1 8 C0.67 8 0.34 8 0 8 C0 5.36 0 2.72 0 0 Z " fill="#000002" transform="translate(852,191)"/>
<path d="M0 0 C0.33 0 0.66 0 1 0 C1 1.65 1 3.3 1 5 C0.67 5 0.34 5 0 5 C0 3.35 0 1.7 0 0 Z " fill="#9397E6" transform="translate(1268,354)"/>
<path d="M0 0 C1 4 1 4 1 4 Z " fill="#000002" transform="translate(850,184)"/>
<path d="M0 0 C3 1 3 1 3 1 Z " fill="#000002" transform="translate(112,1170)"/>
<path d="M0 0 C3 1 3 1 3 1 Z " fill="#000002" transform="translate(101,1167)"/>
<path d="M0 0 C0.66 0.66 1.32 1.32 2 2 C1.34 2 0.68 2 0 2 C0 1.34 0 0.68 0 0 Z " fill="#000002" transform="translate(66,1149)"/>
<path d="M0 0 C2 1 2 1 2 1 Z " fill="#000002" transform="translate(121,1172)"/>
<path d="M0 0 C2 1 2 1 2 1 Z " fill="#000002" transform="translate(1166,1170)"/>
<path d="M0 0 C2 1 2 1 2 1 Z " fill="#000002" transform="translate(1177,1167)"/>
<path d="M0 0 C2 1 2 1 2 1 Z " fill="#000002" transform="translate(1201,1157)"/>
<path d="M0 0 C2 1 2 1 2 1 Z " fill="#000002" transform="translate(77,1157)"/>
<path d="M0 0 C2 1 2 1 2 1 Z " fill="#000002" transform="translate(626,745)"/>
<path d="M0 0 C2 1 2 1 2 1 Z " fill="#000002" transform="translate(662,742)"/>
<path d="M0 0 C2 1 2 1 2 1 Z " fill="#000002" transform="translate(617,742)"/>
<path d="M0 0 C2 1 2 1 2 1 Z " fill="#000002" transform="translate(677,737)"/>
<path d="M0 0 C2 1 2 1 2 1 Z " fill="#000002" transform="translate(692,732)"/>
<path d="M0 0 C2 1 2 1 2 1 Z " fill="#000002" transform="translate(707,727)"/>
<path d="M0 0 C2 1 2 1 2 1 Z " fill="#000002" transform="translate(722,722)"/>
<path d="M0 0 C2 1 2 1 2 1 Z " fill="#000002" transform="translate(737,717)"/>
<path d="M0 0 C2 1 2 1 2 1 Z " fill="#000002" transform="translate(752,712)"/>
<path d="M0 0 C2 1 2 1 2 1 Z " fill="#000002" transform="translate(767,707)"/>
<path d="M0 0 C2 1 2 1 2 1 Z " fill="#000002" transform="translate(782,702)"/>
<path d="M0 0 C2 1 2 1 2 1 Z " fill="#000002" transform="translate(797,697)"/>
<path d="M0 0 C2 1 2 1 2 1 Z " fill="#000002" transform="translate(812,692)"/>
<path d="M0 0 C2 1 2 1 2 1 Z " fill="#000002" transform="translate(827,687)"/>
<path d="M0 0 C2 1 2 1 2 1 Z " fill="#000002" transform="translate(842,682)"/>
<path d="M0 0 C2 1 2 1 2 1 Z " fill="#000002" transform="translate(857,677)"/>
<path d="M0 0 C2 1 2 1 2 1 Z " fill="#000002" transform="translate(872,672)"/>
<path d="M0 0 C2 1 2 1 2 1 Z " fill="#000002" transform="translate(887,667)"/>
<path d="M0 0 C2 1 2 1 2 1 Z " fill="#000002" transform="translate(902,662)"/>
<path d="M0 0 C2 1 2 1 2 1 Z " fill="#000002" transform="translate(917,657)"/>
<path d="M0 0 C2 1 2 1 2 1 Z " fill="#000002" transform="translate(932,652)"/>
<path d="M0 0 C2 1 2 1 2 1 Z " fill="#000002" transform="translate(947,647)"/>
<path d="M0 0 C2 1 2 1 2 1 Z " fill="#000002" transform="translate(962,642)"/>
<path d="M0 0 C2 1 2 1 2 1 Z " fill="#000002" transform="translate(977,637)"/>
<path d="M0 0 C2 1 2 1 2 1 Z " fill="#000002" transform="translate(992,632)"/>
<path d="M0 0 C2 1 2 1 2 1 Z " fill="#000002" transform="translate(287,632)"/>
<path d="M0 0 C2 1 2 1 2 1 Z " fill="#000002" transform="translate(1007,627)"/>
<path d="M0 0 C2 1 2 1 2 1 Z " fill="#000002" transform="translate(272,627)"/>
<path d="M0 0 C2 1 2 1 2 1 Z " fill="#000002" transform="translate(1022,622)"/>
<path d="M0 0 C2 1 2 1 2 1 Z " fill="#000002" transform="translate(257,622)"/>
<path d="M0 0 C2 1 2 1 2 1 Z " fill="#000002" transform="translate(1037,617)"/>
<path d="M0 0 C2 1 2 1 2 1 Z " fill="#000002" transform="translate(242,617)"/>
<path d="M0 0 C2 1 2 1 2 1 Z " fill="#000002" transform="translate(1052,612)"/>
<path d="M0 0 C2 1 2 1 2 1 Z " fill="#000002" transform="translate(227,612)"/>
<path d="M0 0 C2 1 2 1 2 1 Z " fill="#000002" transform="translate(1067,607)"/>
<path d="M0 0 C2 1 2 1 2 1 Z " fill="#000002" transform="translate(212,607)"/>
<path d="M0 0 C2 1 2 1 2 1 Z " fill="#000002" transform="translate(1082,602)"/>
<path d="M0 0 C2 1 2 1 2 1 Z " fill="#000002" transform="translate(197,602)"/>
<path d="M0 0 C2 1 2 1 2 1 Z " fill="#000002" transform="translate(1097,597)"/>
<path d="M0 0 C2 1 2 1 2 1 Z " fill="#000002" transform="translate(182,597)"/>
<path d="M0 0 C2 1 2 1 2 1 Z " fill="#000002" transform="translate(1112,592)"/>
<path d="M0 0 C2 1 2 1 2 1 Z " fill="#000002" transform="translate(167,592)"/>
<path d="M0 0 C2 1 2 1 2 1 Z " fill="#000002" transform="translate(1127,587)"/>
<path d="M0 0 C2 1 2 1 2 1 Z " fill="#000002" transform="translate(152,587)"/>
<path d="M0 0 C2 1 2 1 2 1 Z " fill="#000002" transform="translate(1142,582)"/>
<path d="M0 0 C2 1 2 1 2 1 Z " fill="#000002" transform="translate(137,582)"/>
<path d="M0 0 C2 1 2 1 2 1 Z " fill="#000002" transform="translate(1157,577)"/>
<path d="M0 0 C2 1 2 1 2 1 Z " fill="#000002" transform="translate(122,577)"/>
<path d="M0 0 C2 1 2 1 2 1 Z " fill="#000002" transform="translate(1172,572)"/>
<path d="M0 0 C2 1 2 1 2 1 Z " fill="#000002" transform="translate(107,572)"/>
<path d="M0 0 C2 1 2 1 2 1 Z " fill="#000002" transform="translate(1187,567)"/>
<path d="M0 0 C2 1 2 1 2 1 Z " fill="#000002" transform="translate(92,567)"/>
<path d="M0 0 C2 1 2 1 2 1 Z " fill="#000002" transform="translate(1202,562)"/>
<path d="M0 0 C2 1 2 1 2 1 Z " fill="#000002" transform="translate(77,562)"/>
<path d="M0 0 C2 1 2 1 2 1 Z " fill="#000002" transform="translate(1217,557)"/>
<path d="M0 0 C2 1 2 1 2 1 Z " fill="#000002" transform="translate(62,557)"/>
<path d="M0 0 C2 1 2 1 2 1 Z " fill="#000002" transform="translate(1232,552)"/>
<path d="M0 0 C2 1 2 1 2 1 Z " fill="#000002" transform="translate(47,552)"/>
<path d="M0 0 C2 1 2 1 2 1 Z " fill="#000002" transform="translate(1247,547)"/>
<path d="M0 0 C2 1 2 1 2 1 Z " fill="#000002" transform="translate(32,547)"/>
<path d="M0 0 C2 1 2 1 2 1 Z " fill="#000002" transform="translate(1262,542)"/>
<path d="M0 0 C2 1 2 1 2 1 Z " fill="#000002" transform="translate(17,542)"/>
<path d="" fill="#000002" transform="translate(0,0)"/>
<path d="M0 0 C2 1 2 1 2 1 Z " fill="#5A5B9C" transform="translate(131,265)"/>
<path d="" fill="#000002" transform="translate(0,0)"/>
<path d="" fill="#000002" transform="translate(0,0)"/>
<path d="" fill="#000002" transform="translate(0,0)"/>
<path d="" fill="#000002" transform="translate(0,0)"/>
<path d="" fill="#000002" transform="translate(0,0)"/>
<path d="" fill="#000002" transform="translate(0,0)"/>
<path d="" fill="#000002" transform="translate(0,0)"/>
<path d="" fill="#000002" transform="translate(0,0)"/>
<path d="" fill="#000002" transform="translate(0,0)"/>
<path d="" fill="#000002" transform="translate(0,0)"/>
<path d="" fill="#000002" transform="translate(0,0)"/>
<path d="" fill="#9397E6" transform="translate(0,0)"/>
<path d="" fill="#000002" transform="translate(0,0)"/>
<path d="" fill="#000002" transform="translate(0,0)"/>
<path d="" fill="#000002" transform="translate(0,0)"/>
<path d="" fill="#000002" transform="translate(0,0)"/>
<path d="" fill="#9397E6" transform="translate(0,0)"/>
<path d="" fill="#000002" transform="translate(0,0)"/>
<path d="" fill="#000002" transform="translate(0,0)"/>
<path d="" fill="#000002" transform="translate(0,0)"/>
<path d="" fill="#000002" transform="translate(0,0)"/>
<path d="" fill="#000002" transform="translate(0,0)"/>
<path d="" fill="#000002" transform="translate(0,0)"/>
<path d="" fill="#000002" transform="translate(0,0)"/>
<path d="" fill="#000002" transform="translate(0,0)"/>
<path d="" fill="#5A5B9C" transform="translate(0,0)"/>
<path d="" fill="#000002" transform="translate(0,0)"/>
<path d="" fill="#000002" transform="translate(0,0)"/>
<path d="" fill="#000002" transform="translate(0,0)"/>
<path d="" fill="#000002" transform="translate(0,0)"/>
<path d="" fill="#000002" transform="translate(0,0)"/>
<path d="" fill="#000002" transform="translate(0,0)"/>
<path d="" fill="#000002" transform="translate(0,0)"/>
<path d="" fill="#000002" transform="translate(0,0)"/>
<path d="" fill="#000002" transform="translate(0,0)"/>
<path d="" fill="#000002" transform="translate(0,0)"/>
<path d="" fill="#000002" transform="translate(0,0)"/>
<path d="" fill="#000002" transform="translate(0,0)"/>
<path d="" fill="#000002" transform="translate(0,0)"/>
<path d="" fill="#000002" transform="translate(0,0)"/>
<path d="" fill="#000002" transform="translate(0,0)"/>
<path d="" fill="#000002" transform="translate(0,0)"/>
<path d="" fill="#000002" transform="translate(0,0)"/>
<path d="" fill="#000002" transform="translate(0,0)"/>
<path d="" fill="#000002" transform="translate(0,0)"/>
<path d="" fill="#000002" transform="translate(0,0)"/>
<path d="" fill="#000002" transform="translate(0,0)"/>
<path d="" fill="#000002" transform="translate(0,0)"/>
<path d="" fill="#000002" transform="translate(0,0)"/>
<path d="" fill="#000002" transform="translate(0,0)"/>
<path d="" fill="#000002" transform="translate(0,0)"/>
<path d="" fill="#000002" transform="translate(0,0)"/>
<path d="" fill="#000002" transform="translate(0,0)"/>
<path d="" fill="#000002" transform="translate(0,0)"/>
<path d="" fill="#000002" transform="translate(0,0)"/>
<path d="" fill="#000002" transform="translate(0,0)"/>
<path d="" fill="#000002" transform="translate(0,0)"/>
<path d="" fill="#000002" transform="translate(0,0)"/>
<path d="" fill="#000002" transform="translate(0,0)"/>
<path d="" fill="#5A5B9C" transform="translate(0,0)"/>
<path d="" fill="#000002" transform="translate(0,0)"/>
<path d="" fill="#000002" transform="translate(0,0)"/>
<path d="" fill="#000002" transform="translate(0,0)"/>
<path d="" fill="#000002" transform="translate(0,0)"/>
<path d="" fill="#000002" transform="translate(0,0)"/>
<path d="" fill="#000002" transform="translate(0,0)"/>
<path d="" fill="#000002" transform="translate(0,0)"/>
<path d="" fill="#000002" transform="translate(0,0)"/>
<path d="" fill="#000002" transform="translate(0,0)"/>
<path d="" fill="#000002" transform="translate(0,0)"/>
<path d="" fill="#000002" transform="translate(0,0)"/>
<path d="" fill="#000002" transform="translate(0,0)"/>
<path d="" fill="#000002" transform="translate(0,0)"/>
<path d="" fill="#000002" transform="translate(0,0)"/>
<path d="" fill="#000002" transform="translate(0,0)"/>
<path d="" fill="#000002" transform="translate(0,0)"/>
<path d="" fill="#000002" transform="translate(0,0)"/>
<path d="" fill="#000002" transform="translate(0,0)"/>
<path d="" fill="#000002" transform="translate(0,0)"/>
<path d="" fill="#000002" transform="translate(0,0)"/>
<path d="" fill="#000002" transform="translate(0,0)"/>
<path d="" fill="#000002" transform="translate(0,0)"/>
<path d="" fill="#000002" transform="translate(0,0)"/>
<path d="" fill="#000002" transform="translate(0,0)"/>
<path d="" fill="#000002" transform="translate(0,0)"/>
<path d="" fill="#000002" transform="translate(0,0)"/>
<path d="" fill="#000002" transform="translate(0,0)"/>
<path d="" fill="#000002" transform="translate(0,0)"/>
<path d="" fill="#000002" transform="translate(0,0)"/>
<path d="" fill="#000002" transform="translate(0,0)"/>
<path d="" fill="#000002" transform="translate(0,0)"/>
<path d="" fill="#000002" transform="translate(0,0)"/>
<path d="" fill="#000002" transform="translate(0,0)"/>
<path d="" fill="#000002" transform="translate(0,0)"/>
<path d="" fill="#000002" transform="translate(0,0)"/>
<path d="" fill="#000002" transform="translate(0,0)"/>
<path d="" fill="#000002" transform="translate(0,0)"/>
<path d="" fill="#000002" transform="translate(0,0)"/>
<path d="" fill="#000002" transform="translate(0,0)"/>
<path d="" fill="#000002" transform="translate(0,0)"/>
<path d="" fill="#000002" transform="translate(0,0)"/>
<path d="" fill="#000002" transform="translate(0,0)"/>
<path d="" fill="#000002" transform="translate(0,0)"/>
<path d="" fill="#000002" transform="translate(0,0)"/>
<path d="" fill="#000002" transform="translate(0,0)"/>
<path d="" fill="#000002" transform="translate(0,0)"/>
<path d="" fill="#000002" transform="translate(0,0)"/>
<path d="" fill="#000002" transform="translate(0,0)"/>
<path d="" fill="#000002" transform="translate(0,0)"/>
<path d="" fill="#000002" transform="translate(0,0)"/>
<path d="" fill="#000002" transform="translate(0,0)"/>
<path d="" fill="#000002" transform="translate(0,0)"/>
<path d="" fill="#000002" transform="translate(0,0)"/>
<path d="" fill="#000002" transform="translate(0,0)"/>
<path d="" fill="#000002" transform="translate(0,0)"/>
<path d="" fill="#000002" transform="translate(0,0)"/>
<path d="" fill="#000002" transform="translate(0,0)"/>
<path d="" fill="#000002" transform="translate(0,0)"/>
<path d="" fill="#000002" transform="translate(0,0)"/>
<path d="" fill="#000002" transform="translate(0,0)"/>
<path d="" fill="#000002" transform="translate(0,0)"/>
<path d="" fill="#000002" transform="translate(0,0)"/>
<path d="" fill="#000002" transform="translate(0,0)"/>
<path d="" fill="#000002" transform="translate(0,0)"/>
<path d="" fill="#000002" transform="translate(0,0)"/>
<path d="" fill="#000002" transform="translate(0,0)"/>
<path d="" fill="#000002" transform="translate(0,0)"/>
<path d="" fill="#000002" transform="translate(0,0)"/>
<path d="" fill="#000002" transform="translate(0,0)"/>
<path d="" fill="#000002" transform="translate(0,0)"/>
<path d="" fill="#000002" transform="translate(0,0)"/>
<path d="" fill="#000002" transform="translate(0,0)"/>
<path d="" fill="#000002" transform="translate(0,0)"/>
<path d="" fill="#000002" transform="translate(0,0)"/>
<path d="" fill="#000002" transform="translate(0,0)"/>
<path d="" fill="#000002" transform="translate(0,0)"/>
<path d="" fill="#000002" transform="translate(0,0)"/>
<path d="" fill="#000002" transform="translate(0,0)"/>
<path d="" fill="#000002" transform="translate(0,0)"/>
<path d="" fill="#000002" transform="translate(0,0)"/>
<path d="" fill="#000002" transform="translate(0,0)"/>
<path d="" fill="#000002" transform="translate(0,0)"/>
<path d="" fill="#000002" transform="translate(0,0)"/>
<path d="" fill="#000002" transform="translate(0,0)"/>
<path d="" fill="#5A5B9C" transform="translate(0,0)"/>
<path d="" fill="#9397E6" transform="translate(0,0)"/>
</svg>
