<?xml version="1.0" encoding="UTF-8"?>
<!-- Generator: visioncortex VTracer 0.6.3 -->
<svg version="1.1" xmlns="http://www.w3.org/2000/svg" width="1280" height="1280">
<path d="M0 0 C0.66 0.33 1.32 0.66 2 1 C2.07 55.95 2.12 110.9 2.15 165.85 C2.16 172.33 2.16 178.81 2.16 185.3 C2.17 186.59 2.17 187.88 2.17 189.21 C2.18 210.12 2.2 231.04 2.23 251.95 C2.26 273.41 2.28 294.86 2.28 316.31 C2.29 329.55 2.3 342.79 2.32 356.04 C2.34 365.11 2.34 374.18 2.34 383.26 C2.34 388.5 2.34 393.74 2.36 398.98 C2.37 403.77 2.37 408.56 2.36 413.36 C2.36 415.1 2.37 416.83 2.37 418.57 C2.39 420.93 2.38 423.28 2.37 425.64 C2.37 426.95 2.37 428.26 2.37 429.61 C1.97 433.23 1.04 435.04 -1 438 C-1.46 440.23 -1.46 440.23 -1.5 442.44 C-1.83 446.56 -3.01 449.35 -5 453 C-5.36 454.66 -5.69 456.33 -6 458 C-6.46 459.74 -6.93 461.47 -7.44 463.19 C-7.68 464.05 -7.93 464.91 -8.18 465.79 C-9 468 -9 468 -11 470 C-11.64 472.07 -11.64 472.07 -12 474 C-12.66 474 -13.32 474 -14 474 C-14.1 474.7 -14.21 475.4 -14.31 476.12 C-15.47 480.98 -17.42 484.57 -21 488 C-22.01 489.66 -23.01 491.33 -24 493 C-24.66 493.66 -25.32 494.32 -26 495 C-26.26 495.75 -26.52 496.49 -26.79 497.26 C-28.34 500.78 -30.69 503.12 -33.38 505.78 C-33.92 506.32 -34.45 506.85 -35 507.41 C-36.13 508.54 -37.26 509.66 -38.39 510.78 C-40.11 512.48 -41.81 514.2 -43.51 515.92 C-56.73 529.16 -56.73 529.16 -63.88 530.56 C-64.58 530.71 -65.28 530.85 -66 531 C-66.28 531.62 -66.57 532.24 -66.86 532.88 C-68.32 535.59 -69.6 536.11 -72.38 537.38 C-75.33 538.75 -78.24 540.13 -81.12 541.65 C-82.15 542.2 -83.18 542.75 -84.25 543.31 C-85.2 543.82 -86.16 544.34 -87.14 544.86 C-90.3 546.12 -92.63 546.21 -96 546 C-96 546.66 -96 547.32 -96 548 C-100.7 549.4 -105.38 550.55 -110.18 551.54 C-112.01 551.84 -112.01 551.84 -113 553 C-116.49 553.29 -119.98 553.45 -123.48 553.62 C-126.87 553.81 -126.87 553.81 -129.28 555.01 C-132.68 556.25 -135.48 556.25 -139.1 556.25 C-139.81 556.25 -140.52 556.26 -141.25 556.26 C-143.64 556.27 -146.02 556.26 -148.41 556.25 C-150.14 556.25 -151.87 556.26 -153.6 556.26 C-158.38 556.27 -163.16 556.26 -167.94 556.26 C-173.13 556.25 -178.32 556.26 -183.51 556.26 C-192.62 556.27 -201.73 556.27 -210.83 556.27 C-224.37 556.26 -237.92 556.26 -251.46 556.27 C-274.24 556.28 -297.02 556.28 -319.79 556.27 C-320.84 556.27 -320.84 556.27 -321.9 556.27 C-322.59 556.27 -323.29 556.27 -324 556.27 C-345.16 556.27 -366.33 556.27 -387.49 556.27 C-388.9 556.27 -390.32 556.27 -391.74 556.27 C-397.43 556.27 -403.12 556.27 -408.81 556.27 C-424.71 556.27 -440.62 556.27 -456.53 556.27 C-457.62 556.27 -457.62 556.27 -458.73 556.27 C-481.82 556.27 -504.91 556.27 -528 556.27 C-528.75 556.27 -529.5 556.27 -530.27 556.27 C-542.43 556.27 -554.6 556.26 -566.76 556.26 C-615.02 556.25 -663.27 556.25 -711.52 556.26 C-723.68 556.26 -735.84 556.27 -748 556.27 C-748.75 556.27 -749.5 556.27 -750.27 556.27 C-773.34 556.27 -796.4 556.27 -819.47 556.27 C-820.19 556.27 -820.92 556.27 -821.66 556.27 C-837.55 556.27 -853.44 556.27 -869.33 556.27 C-875.02 556.27 -880.7 556.27 -886.39 556.27 C-887.8 556.27 -889.22 556.27 -890.63 556.27 C-911.79 556.27 -932.95 556.27 -954.1 556.27 C-954.8 556.27 -955.49 556.27 -956.21 556.27 C-957.24 556.27 -957.24 556.27 -958.31 556.27 C-981.65 556.28 -1004.99 556.28 -1028.33 556.27 C-1041.8 556.26 -1055.27 556.26 -1068.74 556.27 C-1077.72 556.27 -1086.7 556.27 -1095.69 556.26 C-1100.81 556.26 -1105.94 556.25 -1111.07 556.26 C-1115.72 556.27 -1120.38 556.26 -1125.04 556.25 C-1126.72 556.25 -1128.4 556.25 -1130.08 556.26 C-1132.35 556.27 -1134.62 556.26 -1136.9 556.25 C-1138.79 556.25 -1138.79 556.25 -1140.72 556.25 C-1143.94 556 -1146.07 555.3 -1149 554 C-1151.41 553.74 -1153.83 553.56 -1156.25 553.44 C-1162.9 553.1 -1162.9 553.1 -1164 552 C-1165.35 551.68 -1166.7 551.39 -1168.06 551.12 C-1171.91 550.31 -1175.44 549.17 -1179.09 547.72 C-1182 546.62 -1185.01 545.85 -1188 545 C-1189.68 544.36 -1191.35 543.7 -1193 543 C-1193 542.34 -1193 541.68 -1193 541 C-1193.72 540.88 -1194.44 540.75 -1195.19 540.62 C-1197.96 540.01 -1200.4 539.12 -1203 538 C-1203 537.34 -1203 536.68 -1203 536 C-1203.78 535.92 -1204.57 535.84 -1205.38 535.75 C-1206.24 535.5 -1207.11 535.26 -1208 535 C-1208.67 533.67 -1209.33 532.33 -1210 531 C-1211.66 530.63 -1213.33 530.3 -1215 530 C-1218.92 527.63 -1222.46 524.9 -1226 522 C-1227.18 521.13 -1227.18 521.13 -1228.38 520.25 C-1231.21 517.82 -1233.49 515.18 -1235.91 512.34 C-1237.9 510.12 -1239.98 508.04 -1242.11 505.97 C-1247.09 501.14 -1251.9 496.28 -1255 490 C-1255 489.01 -1255 488.02 -1255 487 C-1255.99 486.67 -1256.98 486.34 -1258 486 C-1259.25 484 -1259.25 484 -1260.44 481.44 C-1260.87 480.53 -1261.3 479.62 -1261.74 478.68 C-1262.16 477.8 -1262.57 476.91 -1263 476 C-1263.68 474.66 -1264.37 473.33 -1265.06 472 C-1266.97 468.19 -1268.54 464.27 -1270.07 460.3 C-1270.94 458.01 -1270.94 458.01 -1272.09 456.03 C-1273.53 452.83 -1273.45 449.6 -1273.66 446.14 C-1273.77 445.44 -1273.88 444.73 -1274 444 C-1274.66 443.67 -1275.32 443.34 -1276 443 C-1276.38 440.97 -1276.38 440.97 -1276.56 438.5 C-1276.58 435.45 -1276.58 435.45 -1278 433 C-1278.1 430.71 -1278.12 428.42 -1278.12 426.13 C-1278.12 425.4 -1278.13 424.67 -1278.13 423.92 C-1278.13 421.44 -1278.12 418.96 -1278.12 416.48 C-1278.12 414.7 -1278.12 412.91 -1278.12 411.13 C-1278.13 406.21 -1278.12 401.28 -1278.12 396.36 C-1278.11 391.06 -1278.11 385.76 -1278.11 380.46 C-1278.11 371.27 -1278.11 362.08 -1278.11 352.89 C-1278.1 339.6 -1278.1 326.31 -1278.09 313.02 C-1278.09 291.47 -1278.08 269.91 -1278.08 248.35 C-1278.07 227.41 -1278.06 206.46 -1278.05 185.52 C-1278.05 184.23 -1278.05 182.94 -1278.05 181.61 C-1278.05 175.13 -1278.05 168.66 -1278.05 162.19 C-1278.04 108.46 -1278.02 54.73 -1278 1 C-1276.68 1 -1275.36 1 -1274 1 C-1274 1.66 -1274 2.32 -1274 3 C-1273.01 2.67 -1272.02 2.34 -1271 2 C-1268.22 2.96 -1268.22 2.96 -1265.06 4.38 C-1261.71 5.86 -1258.57 7.16 -1255 8 C-1252.21 8.99 -1249.43 10.03 -1246.66 11.06 C-1244.13 12 -1244.13 12 -1242 12.5 C-1238.45 13.39 -1235.08 14.78 -1231.66 16.06 C-1229.13 17 -1229.13 17 -1227 17.5 C-1223.45 18.39 -1220.08 19.78 -1216.66 21.06 C-1214.13 22 -1214.13 22 -1212 22.5 C-1208.45 23.39 -1205.08 24.78 -1201.66 26.06 C-1199.13 27 -1199.13 27 -1197 27.5 C-1193.45 28.39 -1190.08 29.78 -1186.66 31.06 C-1184.13 32 -1184.13 32 -1182 32.5 C-1178.45 33.39 -1175.08 34.78 -1171.66 36.06 C-1169.13 37 -1169.13 37 -1167 37.5 C-1163.45 38.39 -1160.08 39.78 -1156.66 41.06 C-1154.13 42 -1154.13 42 -1152 42.5 C-1148.45 43.39 -1145.08 44.78 -1141.66 46.06 C-1139.13 47 -1139.13 47 -1137 47.5 C-1133.45 48.39 -1130.08 49.78 -1126.66 51.06 C-1124.13 52 -1124.13 52 -1122 52.5 C-1118.45 53.39 -1115.08 54.78 -1111.66 56.06 C-1109.13 57 -1109.13 57 -1107 57.5 C-1103.45 58.39 -1100.08 59.78 -1096.66 61.06 C-1094.13 62 -1094.13 62 -1092 62.5 C-1088.45 63.39 -1085.08 64.78 -1081.66 66.06 C-1079.13 67 -1079.13 67 -1077 67.5 C-1073.45 68.39 -1070.08 69.78 -1066.66 71.06 C-1064.43 71.85 -1062.29 72.45 -1060 73 C-1051.24 75.58 -1042.57 78.44 -1033.91 81.36 C-1030.77 82.41 -1027.64 83.46 -1024.5 84.5 C-914.5 121.17 -804.5 157.83 -694.5 194.5 C-693.27 194.91 -692.03 195.32 -690.76 195.74 C-688.22 196.59 -685.68 197.45 -683.14 198.32 C-670.25 202.72 -657.92 206.19 -644.22 206.1 C-643.01 206.1 -643.01 206.1 -641.76 206.09 C-639.2 206.09 -636.63 206.08 -634.06 206.06 C-632.31 206.06 -630.56 206.05 -628.81 206.05 C-624.54 206.04 -620.27 206.02 -616 206 C-616 205.34 -616 204.68 -616 204 C-614.89 203.92 -613.77 203.84 -612.62 203.75 C-608.18 203.21 -604.47 201.66 -600.38 199.91 C-598 199 -598 199 -594.38 198.5 C-590.64 197.95 -588.25 196.67 -584.97 194.91 C-582.1 193.58 -579.12 193.45 -576 193 C-574.65 192.38 -573.31 191.71 -572 191 C-568.33 189.02 -565.14 188.59 -561 188 C-559.65 187.38 -558.31 186.71 -557 186 C-553.33 184.02 -550.14 183.59 -546 183 C-544.65 182.38 -543.31 181.71 -542 181 C-538.33 179.02 -535.14 178.59 -531 178 C-529.65 177.38 -528.31 176.71 -527 176 C-523.33 174.02 -520.14 173.59 -516 173 C-514.65 172.38 -513.31 171.71 -512 171 C-508.33 169.02 -505.14 168.59 -501 168 C-499.65 167.38 -498.31 166.71 -497 166 C-493.33 164.02 -490.14 163.59 -486 163 C-484.65 162.38 -483.31 161.71 -482 161 C-478.33 159.02 -475.14 158.59 -471 158 C-469.65 157.38 -468.31 156.71 -467 156 C-463.33 154.02 -460.14 153.59 -456 153 C-454.65 152.38 -453.31 151.71 -452 151 C-448.33 149.02 -445.14 148.59 -441 148 C-439.65 147.38 -438.31 146.71 -437 146 C-433.33 144.02 -430.14 143.59 -426 143 C-424.65 142.38 -423.31 141.71 -422 141 C-418.33 139.02 -415.14 138.59 -411 138 C-409.65 137.38 -408.31 136.71 -407 136 C-403.33 134.02 -400.14 133.59 -396 133 C-394.65 132.38 -393.31 131.71 -392 131 C-388.33 129.02 -385.14 128.59 -381 128 C-379.65 127.38 -378.31 126.71 -377 126 C-373.33 124.02 -370.14 123.59 -366 123 C-364.65 122.38 -363.31 121.71 -362 121 C-358.33 119.02 -355.14 118.59 -351 118 C-349.65 117.38 -348.31 116.71 -347 116 C-343.33 114.02 -340.14 113.59 -336 113 C-334.65 112.38 -333.31 111.71 -332 111 C-328.33 109.02 -325.14 108.59 -321 108 C-319.65 107.38 -318.31 106.71 -317 106 C-313.33 104.02 -310.14 103.59 -306 103 C-304.65 102.38 -303.31 101.71 -302 101 C-298.33 99.02 -295.14 98.59 -291 98 C-289.65 97.38 -288.31 96.71 -287 96 C-283.33 94.02 -280.14 93.59 -276 93 C-274.65 92.38 -273.31 91.71 -272 91 C-268.33 89.02 -265.14 88.59 -261 88 C-259.65 87.38 -258.31 86.71 -257 86 C-253.33 84.02 -250.14 83.59 -246 83 C-244.65 82.38 -243.31 81.71 -242 81 C-238.33 79.03 -235.15 78.52 -231 78 C-228.27 77.12 -225.66 76.07 -223 75 C-223 74.67 -223 74.34 -223 74 C-222.01 73.9 -221.02 73.79 -220 73.69 C-215.72 73.09 -212 71.61 -208 70 C-208 69.67 -208 69.34 -208 69 C-207.01 68.9 -206.02 68.79 -205 68.69 C-200.72 68.09 -197 66.61 -193 65 C-193 64.67 -193 64.34 -193 64 C-191.51 63.85 -191.51 63.85 -190 63.69 C-185.72 63.09 -182 61.61 -178 60 C-178 59.67 -178 59.34 -178 59 C-176.51 58.85 -176.51 58.85 -175 58.69 C-170.72 58.09 -167 56.61 -163 55 C-163 54.67 -163 54.34 -163 54 C-161.51 53.85 -161.51 53.85 -160 53.69 C-155.72 53.09 -152 51.61 -148 50 C-148 49.67 -148 49.34 -148 49 C-146.51 48.85 -146.51 48.85 -145 48.69 C-140.72 48.09 -137 46.61 -133 45 C-133 44.67 -133 44.34 -133 44 C-128.02 42.55 -123.03 41.24 -118 40 C-118 39.67 -118 39.34 -118 39 C-116.51 38.85 -116.51 38.85 -115 38.69 C-110.72 38.09 -107 36.61 -103 35 C-103 34.67 -103 34.34 -103 34 C-98.02 32.55 -93.03 31.24 -88 30 C-88 29.67 -88 29.34 -88 29 C-87.01 28.9 -86.02 28.79 -85 28.69 C-80.72 28.09 -77 26.61 -73 25 C-73 24.67 -73 24.34 -73 24 C-72.01 23.9 -71.02 23.79 -70 23.69 C-65.72 23.09 -62 21.61 -58 20 C-58 19.67 -58 19.34 -58 19 C-57.01 18.9 -56.02 18.79 -55 18.69 C-50.72 18.09 -47 16.61 -43 15 C-43 14.67 -43 14.34 -43 14 C-38.02 12.55 -33.03 11.24 -28 10 C-28 9.67 -28 9.34 -28 9 C-23.02 7.55 -18.03 6.24 -13 5 C-13 4.67 -13 4.34 -13 4 C-12.15 3.8 -11.29 3.59 -10.41 3.38 C-9.31 3.11 -8.2 2.84 -7.06 2.56 C-5.96 2.3 -4.86 2.03 -3.72 1.75 C-1.11 1.27 -1.11 1.27 0 0 Z M-31 497 C-30.67 497.66 -30.34 498.32 -30 499 C-29.34 498.34 -28.68 497.68 -28 497 C-28.99 497 -29.98 497 -31 497 Z M-32 499 C-31 501 -31 501 -31 501 Z M-55 521 C-54 523 -54 523 -54 523 Z " fill="#9C95C7" transform="translate(1278,618)"/>
<path d="M0 0 C27.75 -0.02 55.49 -0.04 83.24 -0.05 C96.12 -0.06 109.01 -0.06 121.89 -0.08 C133.12 -0.09 144.35 -0.09 155.58 -0.09 C161.53 -0.1 167.47 -0.1 173.42 -0.11 C179.02 -0.11 184.61 -0.11 190.21 -0.11 C192.26 -0.11 194.32 -0.12 196.37 -0.12 C199.18 -0.12 201.99 -0.12 204.79 -0.12 C205.6 -0.12 206.41 -0.13 207.24 -0.13 C211.9 -0.12 216.44 0.19 221.06 0.79 C223.17 1.06 223.17 1.06 226 1 C226 1.66 226 2.32 226 3 C227.3 2.9 228.6 2.79 229.94 2.69 C240.26 2.66 250.68 6.85 260 11 C260.85 11.36 261.7 11.72 262.58 12.1 C263.32 12.42 264.05 12.73 264.81 13.06 C265.56 13.38 266.31 13.7 267.08 14.04 C269.55 15.28 270.76 16.53 272 19 C272.93 19.22 272.93 19.22 273.88 19.44 C276.46 20.12 277.12 21.12 279 23 C280.07 23.56 281.14 24.11 282.25 24.69 C286.08 26.79 288.48 29.57 291.23 32.91 C292.97 34.97 294.81 36.82 296.75 38.69 C299.38 41.27 301.18 43.78 303 47 C303.78 47.89 304.57 48.77 305.38 49.69 C309.18 54.13 313 60.07 313 66 C313.66 66 314.32 66 315 66 C315.19 67.67 315.19 67.67 315.38 69.38 C315.65 73.03 315.65 73.03 318 75 C318.38 76.91 318.38 76.91 318.56 79.06 C318.56 82.77 318.56 82.77 320 84 C320.29 86.74 320.45 89.49 320.62 92.24 C320.82 94.93 320.82 94.93 322 96.8 C323.28 99.63 323.28 101.86 323.32 104.96 C323.35 106.76 323.35 106.76 323.38 108.6 C323.39 109.89 323.4 111.18 323.41 112.52 C323.43 113.86 323.45 115.19 323.47 116.53 C323.52 120.05 323.56 123.57 323.6 127.09 C323.64 130.68 323.69 134.27 323.74 137.87 C323.84 144.91 323.92 151.96 324 159 C324.58 159 325.17 159 325.77 159.01 C360.41 159.11 395.05 159.22 429.68 159.33 C433.85 159.34 438.01 159.36 442.17 159.37 C443 159.38 443.83 159.38 444.68 159.38 C458.08 159.42 471.49 159.47 484.89 159.5 C498.65 159.55 512.41 159.59 526.17 159.64 C534.66 159.67 543.15 159.69 551.63 159.72 C557.46 159.73 563.28 159.75 569.11 159.77 C572.46 159.79 575.82 159.8 579.18 159.8 C582.83 159.81 586.47 159.83 590.12 159.84 C591.7 159.84 591.7 159.84 593.3 159.84 C610.88 159.94 610.88 159.94 615 162 C617.5 162.35 619.99 162.66 622.5 162.94 C631.73 164.05 640.14 165.42 648.75 169.06 C650.53 169.8 652.36 170.45 654.19 171.06 C659.99 173 665.16 175.59 670.46 178.61 C674.33 180.73 678.31 182.59 682.3 184.47 C685.71 186.4 688.23 188.47 690 192 C690.72 192.26 691.45 192.51 692.19 192.78 C695.81 194.35 698.17 196.78 700.89 199.56 C701.43 200.1 701.97 200.65 702.53 201.21 C703.67 202.36 704.81 203.51 705.95 204.67 C707.69 206.44 709.43 208.19 711.18 209.95 C712.29 211.07 713.4 212.19 714.51 213.31 C715.29 214.1 715.29 214.1 716.09 214.9 C719.31 218.18 721.64 221.35 723.88 225.38 C725.17 227.68 726.44 229.54 728.12 231.62 C731.14 235.44 732.19 239.26 733 244 C733.66 244 734.32 244 735 244 C736.01 246.52 737.01 249.04 738 251.56 C738.94 253.95 738.94 253.95 740 255.94 C741.77 259.59 743 262.93 743 267 C743.32 267.63 743.64 268.26 743.97 268.91 C745.4 271.81 745.39 274.49 745.56 277.68 C745.87 280.12 745.87 280.12 747.51 282.26 C749.27 285.5 749.37 287.5 749.36 291.18 C749.36 292.43 749.37 293.67 749.37 294.95 C749.36 296.32 749.35 297.69 749.34 299.06 C749.34 300.51 749.34 301.96 749.34 303.41 C749.34 307.34 749.33 311.26 749.3 315.19 C749.29 319.3 749.28 323.4 749.28 327.51 C749.27 335.28 749.25 343.06 749.22 350.83 C749.18 359.68 749.17 368.53 749.15 377.38 C749.12 395.59 749.07 413.8 749 432 C748.1 432.29 748.1 432.29 747.17 432.59 C746.37 432.85 745.57 433.11 744.75 433.38 C743.96 433.63 743.17 433.89 742.36 434.15 C740.13 434.95 738.11 435.94 736 437 C733.68 437.7 731.34 438.36 729 439 C724.55 440.21 720.27 441.63 715.97 443.28 C713.03 444.35 710.01 445.14 707 446 C705.66 446.49 704.33 446.99 703 447.5 C699.39 448.89 695.72 449.94 692 451 C690.66 451.49 689.33 451.99 688 452.5 C684.39 453.89 680.72 454.94 677 456 C675.66 456.49 674.33 456.99 673 457.5 C669.39 458.89 665.72 459.94 662 461 C660.66 461.49 659.33 461.99 658 462.5 C654.39 463.89 650.72 464.94 647 466 C645.66 466.49 644.33 466.99 643 467.5 C639.39 468.89 635.72 469.94 632 471 C630.66 471.49 629.33 471.99 628 472.5 C624.39 473.89 620.72 474.94 617 476 C615.66 476.49 614.33 476.99 613 477.5 C609.39 478.89 605.72 479.94 602 481 C600.66 481.49 599.33 481.99 598 482.5 C594.39 483.89 590.72 484.94 587 486 C585.66 486.49 584.33 486.99 583 487.5 C579.39 488.89 575.72 489.94 572 491 C570.66 491.49 569.33 491.99 568 492.5 C564.39 493.89 560.72 494.94 557 496 C555.66 496.49 554.33 496.99 553 497.5 C549.39 498.89 545.72 499.94 542 501 C540.66 501.49 539.33 501.99 538 502.5 C534.39 503.89 530.72 504.94 527 506 C525.66 506.49 524.33 506.99 523 507.5 C519.39 508.89 515.72 509.94 512 511 C510.66 511.49 509.33 511.99 508 512.5 C504.39 513.89 500.72 514.94 497 516 C495.66 516.49 494.33 516.99 493 517.5 C489.39 518.89 485.72 519.94 482 521 C480.66 521.49 479.33 521.99 478 522.5 C474.39 523.89 470.72 524.94 467 526 C465.66 526.49 464.33 526.99 463 527.5 C459.39 528.89 455.72 529.94 452 531 C450.66 531.49 449.33 531.99 448 532.5 C444.39 533.89 440.72 534.94 437 536 C435.66 536.49 434.33 536.99 433 537.5 C429.39 538.89 425.72 539.94 422 541 C420.66 541.49 419.33 541.99 418 542.5 C414.39 543.89 410.72 544.94 407 546 C405.66 546.49 404.33 546.99 403 547.5 C399.39 548.89 395.72 549.94 392 551 C390.66 551.49 389.33 551.99 388 552.5 C384.39 553.89 380.72 554.94 377 556 C375.66 556.49 374.33 556.99 373 557.5 C369.39 558.89 365.72 559.94 362 561 C360.66 561.49 359.33 561.99 358 562.5 C354.39 563.89 350.72 564.94 347 566 C345.66 566.49 344.33 566.99 343 567.5 C339.39 568.89 335.72 569.94 332 571 C330.66 571.49 329.33 571.99 328 572.5 C324.39 573.89 320.72 574.94 317 576 C315.66 576.49 314.33 576.99 313 577.5 C309.39 578.89 305.72 579.94 302 581 C300.66 581.49 299.33 581.99 298 582.5 C294.39 583.89 290.72 584.94 287 586 C285.66 586.49 284.33 586.99 283 587.5 C279.39 588.89 275.72 589.94 272 591 C270.66 591.49 269.33 591.99 268 592.5 C264.39 593.89 260.72 594.94 257 596 C255.66 596.49 254.33 596.99 253 597.5 C249.39 598.89 245.72 599.94 242 601 C240.66 601.49 239.33 601.99 238 602.5 C234.39 603.89 230.72 604.94 227 606 C225.66 606.49 224.33 606.99 223 607.5 C219.39 608.89 215.72 609.94 212 611 C210.66 611.49 209.33 611.99 208 612.5 C204.39 613.89 200.72 614.94 197 616 C195.66 616.49 194.33 616.99 193 617.5 C189.39 618.89 185.72 619.94 182 621 C180.66 621.49 179.33 621.99 178 622.5 C174.39 623.89 170.72 624.94 167 626 C165.66 626.49 164.33 626.99 163 627.5 C159.39 628.89 155.72 629.94 152 631 C150.66 631.49 149.33 631.99 148 632.5 C144.39 633.89 140.72 634.94 137 636 C134.99 636.73 132.99 637.5 131 638.27 C129.04 638.99 127.07 639.57 125.06 640.12 C122.15 640.69 122.15 640.69 121 642 C119.22 642.09 117.44 642.11 115.65 642.1 C114.03 642.09 114.03 642.09 112.38 642.09 C111.24 642.08 110.11 642.07 108.94 642.06 C107.8 642.06 106.66 642.05 105.48 642.05 C102.65 642.04 99.83 642.02 97 642 C97 641.34 97 640.68 97 640 C95.61 640.06 95.61 640.06 94.19 640.12 C91 640 91 640 88 638 C85.68 637.29 83.34 636.63 81 636 C76.55 634.79 72.27 633.37 67.97 631.72 C66.17 631.06 64.34 630.52 62.5 630 C59.23 629.07 56.14 627.94 52.97 626.72 C51.17 626.06 49.34 625.52 47.5 625 C44.23 624.07 41.14 622.94 37.97 621.72 C36.17 621.06 34.34 620.52 32.5 620 C29.23 619.07 26.14 617.94 22.97 616.72 C21.17 616.06 19.34 615.52 17.5 615 C14.23 614.07 11.14 612.94 7.97 611.72 C6.17 611.06 4.34 610.52 2.5 610 C-0.77 609.07 -3.86 607.94 -7.03 606.72 C-8.83 606.06 -10.66 605.52 -12.5 605 C-15.77 604.07 -18.86 602.94 -22.03 601.72 C-23.83 601.06 -25.66 600.52 -27.5 600 C-30.77 599.07 -33.86 597.94 -37.03 596.72 C-38.83 596.06 -40.66 595.52 -42.5 595 C-45.77 594.07 -48.86 592.94 -52.03 591.72 C-53.83 591.06 -55.66 590.52 -57.5 590 C-60.77 589.07 -63.86 587.94 -67.03 586.72 C-68.83 586.06 -70.66 585.52 -72.5 585 C-75.77 584.07 -78.86 582.94 -82.03 581.72 C-83.83 581.06 -85.66 580.52 -87.5 580 C-90.77 579.07 -93.86 577.94 -97.03 576.72 C-98.83 576.06 -100.66 575.52 -102.5 575 C-105.77 574.07 -108.86 572.94 -112.03 571.72 C-113.83 571.06 -115.66 570.52 -117.5 570 C-120.77 569.07 -123.86 567.94 -127.03 566.72 C-128.83 566.06 -130.66 565.52 -132.5 565 C-135.77 564.07 -138.86 562.94 -142.03 561.72 C-143.83 561.06 -145.66 560.52 -147.5 560 C-150.77 559.07 -153.86 557.94 -157.03 556.72 C-158.83 556.06 -160.66 555.52 -162.5 555 C-165.77 554.07 -168.86 552.94 -172.03 551.72 C-173.83 551.06 -175.66 550.52 -177.5 550 C-180.77 549.07 -183.86 547.94 -187.03 546.72 C-188.83 546.06 -190.66 545.52 -192.5 545 C-195.77 544.07 -198.86 542.94 -202.03 541.72 C-203.83 541.06 -205.66 540.52 -207.5 540 C-210.77 539.07 -213.86 537.94 -217.03 536.72 C-218.83 536.06 -220.66 535.52 -222.5 535 C-225.77 534.07 -228.86 532.94 -232.03 531.72 C-233.83 531.06 -235.66 530.52 -237.5 530 C-240.77 529.07 -243.86 527.94 -247.03 526.72 C-248.83 526.06 -250.66 525.52 -252.5 525 C-255.77 524.07 -258.86 522.94 -262.03 521.72 C-263.83 521.06 -265.66 520.52 -267.5 520 C-270.77 519.07 -273.86 517.94 -277.03 516.72 C-278.83 516.06 -280.66 515.52 -282.5 515 C-285.77 514.07 -288.86 512.94 -292.03 511.72 C-293.83 511.06 -295.66 510.52 -297.5 510 C-300.77 509.07 -303.86 507.94 -307.03 506.72 C-308.83 506.06 -310.66 505.52 -312.5 505 C-315.77 504.07 -318.86 502.94 -322.03 501.72 C-323.83 501.06 -325.66 500.52 -327.5 500 C-330.77 499.07 -333.86 497.94 -337.03 496.72 C-338.83 496.06 -340.66 495.52 -342.5 495 C-345.77 494.07 -348.86 492.94 -352.03 491.72 C-353.83 491.06 -355.66 490.52 -357.5 490 C-360.77 489.07 -363.86 487.94 -367.03 486.72 C-368.83 486.06 -370.66 485.52 -372.5 485 C-375.77 484.07 -378.86 482.94 -382.03 481.72 C-383.83 481.06 -385.66 480.52 -387.5 480 C-390.77 479.07 -393.86 477.94 -397.03 476.72 C-398.83 476.06 -400.66 475.52 -402.5 475 C-405.77 474.07 -408.86 472.94 -412.03 471.72 C-413.83 471.06 -415.66 470.52 -417.5 470 C-420.77 469.07 -423.86 467.94 -427.03 466.72 C-428.83 466.06 -430.66 465.52 -432.5 465 C-435.77 464.07 -438.86 462.94 -442.03 461.72 C-443.83 461.06 -445.66 460.52 -447.5 460 C-450.77 459.07 -453.86 457.94 -457.03 456.72 C-458.83 456.06 -460.66 455.52 -462.5 455 C-465.77 454.07 -468.86 452.94 -472.03 451.72 C-473.83 451.06 -475.66 450.52 -477.5 450 C-480.77 449.07 -483.86 447.94 -487.03 446.72 C-488.83 446.06 -490.66 445.52 -492.5 445 C-495.77 444.07 -498.86 442.94 -502.03 441.72 C-503.83 441.06 -505.66 440.52 -507.5 440 C-510.76 439.07 -513.86 437.94 -517.02 436.72 C-519.96 435.65 -522.99 434.85 -526 434 C-527.67 433.35 -529.34 432.68 -531 432 C-531.05 412.9 -531.08 393.81 -531.1 374.71 C-531.11 365.84 -531.13 356.97 -531.15 348.11 C-531.17 340.38 -531.18 332.65 -531.19 324.92 C-531.19 320.83 -531.2 316.74 -531.21 312.65 C-531.23 308.8 -531.23 304.94 -531.23 301.09 C-531.23 299.68 -531.23 298.27 -531.24 296.85 C-531.25 294.92 -531.24 292.99 -531.24 291.06 C-531.24 289.98 -531.24 288.9 -531.25 287.79 C-531 285.01 -530.44 283.36 -529 281 C-529.66 280.67 -530.32 280.34 -531 280 C-530.34 280 -529.68 280 -529 280 C-529 278.02 -529 276.04 -529 274 C-528.34 274 -527.68 274 -527 274 C-527.5 272.51 -527.5 272.51 -528 271 C-527.31 269.03 -526.61 267.06 -525.83 265.12 C-524.67 262.14 -523.87 259.07 -523 256 C-522.37 254.32 -521.7 252.65 -521 251 C-520.53 249.85 -520.05 248.69 -519.56 247.5 C-518.22 244.48 -516.7 241.82 -515 239 C-514.33 237.34 -513.66 235.67 -513 234 C-512.34 233.01 -511.68 232.02 -511 231 C-510.34 231 -509.68 231 -509 231 C-508.9 230.24 -508.79 229.47 -508.69 228.69 C-507.91 225.65 -507.2 225.12 -505 223 C-504.42 221.93 -503.83 220.86 -503.23 219.76 C-501.16 216.07 -498.65 213.28 -495.65 210.29 C-495.15 209.78 -494.65 209.28 -494.13 208.77 C-493.09 207.72 -492.04 206.68 -490.98 205.65 C-489.36 204.05 -487.76 202.44 -486.16 200.83 C-478.28 193 -478.28 193 -476 193 C-476 192.34 -476 191.68 -476 191 C-475.46 190.94 -474.93 190.88 -474.38 190.81 C-470.95 189.64 -468.73 187.33 -466 185 C-464.67 184.32 -463.34 183.65 -462 183 C-461.67 182.34 -461.34 181.68 -461 181 C-457.73 179.46 -454.55 178.61 -451 178 C-451 177.34 -451 176.68 -451 176 C-448.04 174.8 -445.06 173.66 -442.06 172.56 C-439.55 171.64 -437.38 170.66 -435 169.38 C-431.98 167.99 -429.45 167.61 -426.16 167.32 C-422.91 166.84 -419.95 165.69 -416.88 164.52 C-415 164 -415 164 -413 165 C-413 164.34 -413 163.68 -413 163 C-411.88 162.94 -410.76 162.88 -409.61 162.82 C-408.13 162.73 -406.66 162.65 -405.19 162.56 C-404.45 162.52 -403.71 162.48 -402.95 162.44 C-399.77 162.26 -397.04 162.01 -394 161 C-392.33 161 -390.67 161 -389 161 C-388.67 160.67 -388.34 160.34 -388 160 C-386.5 159.9 -384.99 159.88 -383.49 159.88 C-382.51 159.87 -381.53 159.87 -380.52 159.87 C-378.88 159.88 -378.88 159.88 -377.21 159.88 C-376.06 159.88 -374.92 159.88 -373.73 159.88 C-370.53 159.88 -367.33 159.88 -364.13 159.88 C-360.68 159.89 -357.23 159.89 -353.79 159.89 C-347.81 159.89 -341.83 159.89 -335.85 159.89 C-327.21 159.9 -318.57 159.9 -309.93 159.91 C-295.91 159.91 -281.89 159.92 -267.87 159.92 C-254.25 159.93 -240.62 159.94 -227 159.95 C-226.16 159.95 -225.32 159.95 -224.46 159.95 C-220.25 159.95 -216.04 159.95 -211.83 159.95 C-176.89 159.96 -141.94 159.98 -107 160 C-107 142.51 -107 125.02 -107 107 C-106.34 107 -105.68 107 -105 107 C-105.33 104.36 -105.66 101.72 -106 99 C-105.34 99 -104.68 99 -104 99 C-104.33 98.01 -104.66 97.02 -105 96 C-105.06 89.16 -103.66 83.51 -100.91 77.29 C-99.7 74.26 -99.4 71.23 -99 68 C-98.34 67.01 -97.68 66.02 -97 65 C-96.24 63.47 -95.49 61.92 -94.75 60.38 C-92.26 55.35 -89.58 50.34 -86 46 C-85.34 46 -84.68 46 -84 46 C-83.92 45.44 -83.83 44.89 -83.75 44.31 C-81.94 38.72 -76.62 34.38 -72.56 30.25 C-72 29.66 -71.44 29.07 -70.87 28.46 C-67.75 25.3 -65.66 23.24 -61 23 C-61 22.34 -61 21.68 -61 21 C-55.95 16.84 -50.04 13.88 -44.16 11.08 C-41.8 9.96 -41.8 9.96 -39 8 C-37.99 7.88 -36.98 7.75 -35.94 7.62 C-32.49 7.08 -30.36 6.35 -27.25 4.94 C-21.78 2.61 -16.86 2.6 -11 3 C-11 2.34 -11 1.68 -11 1 C-10.34 1.33 -9.68 1.66 -9 2 C-8.67 1.67 -8.34 1.34 -8 1 C-5.31 1.18 -2.67 1.62 0 2 C0 1.34 0 0.68 0 0 Z M3 112 C2.7 114.09 2.7 114.09 2.76 116.53 C2.75 117.46 2.75 118.4 2.75 119.37 C2.75 120.38 2.76 121.4 2.77 122.44 C2.77 123.48 2.77 124.52 2.77 125.59 C2.77 127.78 2.78 129.98 2.79 132.18 C2.81 135.55 2.81 138.93 2.81 142.3 C2.82 144.43 2.83 146.56 2.83 148.69 C2.83 149.71 2.83 150.72 2.84 151.77 C2.84 152.71 2.85 153.64 2.85 154.6 C2.86 155.43 2.86 156.26 2.87 157.11 C2.79 159.01 2.79 159.01 4 160 C6.69 160.1 9.36 160.13 12.05 160.12 C13.34 160.12 13.34 160.12 14.64 160.12 C17.53 160.12 20.41 160.12 23.3 160.11 C25.36 160.11 27.42 160.11 29.48 160.11 C35.09 160.11 40.7 160.11 46.3 160.1 C52.16 160.1 58.01 160.09 63.87 160.09 C74.97 160.09 86.06 160.08 97.16 160.07 C109.79 160.06 122.41 160.06 135.04 160.05 C161.03 160.04 187.01 160.02 213 160 C213 143.5 213 127 213 110 C185.91 109.95 158.83 109.92 131.74 109.9 C119.17 109.89 106.59 109.87 94.02 109.85 C83.06 109.83 72.1 109.82 61.15 109.81 C55.34 109.81 49.54 109.8 43.73 109.79 C38.27 109.78 32.82 109.77 27.36 109.77 C25.35 109.77 23.34 109.77 21.33 109.76 C18.6 109.75 15.87 109.75 13.14 109.76 C12.33 109.75 11.53 109.75 10.7 109.74 C6.39 109.6 6.39 109.6 3 112 Z M718 220 C719 222 719 222 719 222 Z " fill="#9C95C7" transform="translate(531,104)"/>
<path d="M0 0 C0.66 0.66 1.32 1.32 2 2 C-1.37 5.42 -4.76 8.84 -8.14 12.25 C-9.3 13.42 -10.45 14.58 -11.6 15.75 C-13.24 17.42 -14.9 19.08 -16.55 20.75 C-17.07 21.27 -17.58 21.8 -18.11 22.34 C-19.37 23.6 -20.68 24.81 -22 26 C-22.66 26 -23.32 26 -24 26 C-22.58 20.78 -19.07 17.37 -15 14 C-14.01 13.67 -13.02 13.34 -12 13 C-11.57 12.28 -11.13 11.56 -10.69 10.81 C-8.63 7.39 -6.2 4.42 -3 2 C-2.01 2 -1.02 2 0 2 C0 1.34 0 0.68 0 0 Z " fill="#787399" transform="translate(1247,1117)"/>
<path d="M0 0 C4.62 0 9.24 0 14 0 C14 0.33 14 0.66 14 1 C9.38 1 4.76 1 0 1 C0 0.67 0 0.34 0 0 Z " fill="#000002" transform="translate(633,747)"/>
<path d="M0 0 C2.64 0 5.28 0 8 0 C8 0.33 8 0.66 8 1 C5.36 1 2.72 1 0 1 C0 0.67 0 0.34 0 0 Z " fill="#000002" transform="translate(1151,1172)"/>
<path d="M0 0 C2.64 0 5.28 0 8 0 C8 0.33 8 0.66 8 1 C5.36 1 2.72 1 0 1 C0 0.67 0 0.34 0 0 Z " fill="#000002" transform="translate(121,1172)"/>
<path d="M0 0 C0.33 0 0.66 0 1 0 C1 2.64 1 5.28 1 8 C0.67 8 0.34 8 0 8 C0 5.36 0 2.72 0 0 Z " fill="#000002" transform="translate(852,191)"/>
<path d="M0 0 C1 4 1 4 1 4 Z " fill="#000002" transform="translate(1277,1056)"/>
<path d="M0 0 C1 4 1 4 1 4 Z " fill="#000002" transform="translate(1277,380)"/>
<path d="M0 0 C3 1 3 1 3 1 Z " fill="#000002" transform="translate(1176,1167)"/>
<path d="M0 0 C3 1 3 1 3 1 Z " fill="#000002" transform="translate(101,1167)"/>
<path d="M0 0 C3 1 3 1 3 1 Z " fill="#000002" transform="translate(661,742)"/>
<path d="M0 0 C3 1 3 1 3 1 Z " fill="#000002" transform="translate(676,737)"/>
<path d="M0 0 C3 1 3 1 3 1 Z " fill="#000002" transform="translate(691,732)"/>
<path d="M0 0 C3 1 3 1 3 1 Z " fill="#000002" transform="translate(706,727)"/>
<path d="M0 0 C3 1 3 1 3 1 Z " fill="#000002" transform="translate(721,722)"/>
<path d="M0 0 C3 1 3 1 3 1 Z " fill="#000002" transform="translate(736,717)"/>
<path d="M0 0 C3 1 3 1 3 1 Z " fill="#000002" transform="translate(751,712)"/>
<path d="M0 0 C3 1 3 1 3 1 Z " fill="#000002" transform="translate(766,707)"/>
<path d="M0 0 C3 1 3 1 3 1 Z " fill="#000002" transform="translate(781,702)"/>
<path d="M0 0 C3 1 3 1 3 1 Z " fill="#000002" transform="translate(796,697)"/>
<path d="M0 0 C3 1 3 1 3 1 Z " fill="#000002" transform="translate(811,692)"/>
<path d="M0 0 C3 1 3 1 3 1 Z " fill="#000002" transform="translate(826,687)"/>
<path d="M0 0 C3 1 3 1 3 1 Z " fill="#000002" transform="translate(841,682)"/>
<path d="M0 0 C3 1 3 1 3 1 Z " fill="#000002" transform="translate(856,677)"/>
<path d="M0 0 C3 1 3 1 3 1 Z " fill="#000002" transform="translate(871,672)"/>
<path d="M0 0 C3 1 3 1 3 1 Z " fill="#000002" transform="translate(886,667)"/>
<path d="M0 0 C3 1 3 1 3 1 Z " fill="#000002" transform="translate(901,662)"/>
<path d="M0 0 C3 1 3 1 3 1 Z " fill="#000002" transform="translate(916,657)"/>
<path d="M0 0 C3 1 3 1 3 1 Z " fill="#000002" transform="translate(931,652)"/>
<path d="M0 0 C3 1 3 1 3 1 Z " fill="#000002" transform="translate(946,647)"/>
<path d="M0 0 C3 1 3 1 3 1 Z " fill="#000002" transform="translate(961,642)"/>
<path d="M0 0 C3 1 3 1 3 1 Z " fill="#000002" transform="translate(976,637)"/>
<path d="M0 0 C3 1 3 1 3 1 Z " fill="#000002" transform="translate(991,632)"/>
<path d="M0 0 C3 1 3 1 3 1 Z " fill="#000002" transform="translate(1006,627)"/>
<path d="M0 0 C3 1 3 1 3 1 Z " fill="#000002" transform="translate(1021,622)"/>
<path d="M0 0 C3 1 3 1 3 1 Z " fill="#000002" transform="translate(1036,617)"/>
<path d="M0 0 C3 1 3 1 3 1 Z " fill="#000002" transform="translate(1051,612)"/>
<path d="M0 0 C3 1 3 1 3 1 Z " fill="#000002" transform="translate(1066,607)"/>
<path d="M0 0 C3 1 3 1 3 1 Z " fill="#000002" transform="translate(1081,602)"/>
<path d="M0 0 C3 1 3 1 3 1 Z " fill="#000002" transform="translate(1096,597)"/>
<path d="M0 0 C3 1 3 1 3 1 Z " fill="#000002" transform="translate(1111,592)"/>
<path d="M0 0 C3 1 3 1 3 1 Z " fill="#000002" transform="translate(1126,587)"/>
<path d="M0 0 C3 1 3 1 3 1 Z " fill="#000002" transform="translate(1141,582)"/>
<path d="M0 0 C3 1 3 1 3 1 Z " fill="#000002" transform="translate(1156,577)"/>
<path d="M0 0 C3 1 3 1 3 1 Z " fill="#000002" transform="translate(1171,572)"/>
<path d="M0 0 C3 1 3 1 3 1 Z " fill="#000002" transform="translate(1186,567)"/>
<path d="M0 0 C3 1 3 1 3 1 Z " fill="#000002" transform="translate(1201,562)"/>
<path d="M0 0 C3 1 3 1 3 1 Z " fill="#000002" transform="translate(1216,557)"/>
<path d="M0 0 C3 1 3 1 3 1 Z " fill="#000002" transform="translate(1231,552)"/>
<path d="M0 0 C3 1 3 1 3 1 Z " fill="#000002" transform="translate(1246,547)"/>
<path d="M0 0 C3 1 3 1 3 1 Z " fill="#000002" transform="translate(1261,542)"/>
<path d="" fill="#000002" transform="translate(0,0)"/>
<path d="M0 0 C2 1 2 1 2 1 Z " fill="#000002" transform="translate(1166,1170)"/>
<path d="M0 0 C2 1 2 1 2 1 Z " fill="#000002" transform="translate(112,1170)"/>
<path d="M0 0 C2 1 2 1 2 1 Z " fill="#000002" transform="translate(1184,1164)"/>
<path d="M0 0 C2 1 2 1 2 1 Z " fill="#000002" transform="translate(1201,1157)"/>
<path d="M0 0 C2 1 2 1 2 1 Z " fill="#000002" transform="translate(77,1157)"/>
<path d="M0 0 C2 1 2 1 2 1 Z " fill="#000002" transform="translate(1273,1070)"/>
<path d="M0 0 C2 1 2 1 2 1 Z " fill="#000002" transform="translate(624,744)"/>
<path d="M0 0 C2 1 2 1 2 1 Z " fill="#000002" transform="translate(617,742)"/>
<path d="M0 0 C2 1 2 1 2 1 Z " fill="#000002" transform="translate(602,737)"/>
<path d="M0 0 C2 1 2 1 2 1 Z " fill="#000002" transform="translate(587,732)"/>
<path d="M0 0 C2 1 2 1 2 1 Z " fill="#000002" transform="translate(572,727)"/>
<path d="M0 0 C2 1 2 1 2 1 Z " fill="#000002" transform="translate(557,722)"/>
<path d="M0 0 C2 1 2 1 2 1 Z " fill="#000002" transform="translate(542,717)"/>
<path d="M0 0 C2 1 2 1 2 1 Z " fill="#000002" transform="translate(527,712)"/>
<path d="M0 0 C2 1 2 1 2 1 Z " fill="#000002" transform="translate(512,707)"/>
<path d="M0 0 C2 1 2 1 2 1 Z " fill="#000002" transform="translate(497,702)"/>
<path d="M0 0 C2 1 2 1 2 1 Z " fill="#000002" transform="translate(482,697)"/>
<path d="M0 0 C2 1 2 1 2 1 Z " fill="#000002" transform="translate(467,692)"/>
<path d="M0 0 C2 1 2 1 2 1 Z " fill="#000002" transform="translate(452,687)"/>
<path d="M0 0 C2 1 2 1 2 1 Z " fill="#000002" transform="translate(437,682)"/>
<path d="M0 0 C2 1 2 1 2 1 Z " fill="#000002" transform="translate(422,677)"/>
<path d="M0 0 C2 1 2 1 2 1 Z " fill="#000002" transform="translate(407,672)"/>
<path d="M0 0 C2 1 2 1 2 1 Z " fill="#000002" transform="translate(392,667)"/>
<path d="M0 0 C2 1 2 1 2 1 Z " fill="#000002" transform="translate(377,662)"/>
<path d="M0 0 C2 1 2 1 2 1 Z " fill="#000002" transform="translate(362,657)"/>
<path d="M0 0 C2 1 2 1 2 1 Z " fill="#000002" transform="translate(347,652)"/>
<path d="M0 0 C2 1 2 1 2 1 Z " fill="#000002" transform="translate(332,647)"/>
<path d="M0 0 C2 1 2 1 2 1 Z " fill="#000002" transform="translate(317,642)"/>
<path d="M0 0 C2 1 2 1 2 1 Z " fill="#000002" transform="translate(302,637)"/>
<path d="M0 0 C2 1 2 1 2 1 Z " fill="#000002" transform="translate(287,632)"/>
<path d="M0 0 C2 1 2 1 2 1 Z " fill="#000002" transform="translate(272,627)"/>
<path d="M0 0 C2 1 2 1 2 1 Z " fill="#000002" transform="translate(257,622)"/>
<path d="M0 0 C2 1 2 1 2 1 Z " fill="#000002" transform="translate(242,617)"/>
<path d="M0 0 C2 1 2 1 2 1 Z " fill="#000002" transform="translate(227,612)"/>
<path d="M0 0 C2 1 2 1 2 1 Z " fill="#000002" transform="translate(212,607)"/>
<path d="M0 0 C2 1 2 1 2 1 Z " fill="#000002" transform="translate(197,602)"/>
<path d="M0 0 C2 1 2 1 2 1 Z " fill="#000002" transform="translate(182,597)"/>
<path d="M0 0 C2 1 2 1 2 1 Z " fill="#000002" transform="translate(167,592)"/>
<path d="M0 0 C2 1 2 1 2 1 Z " fill="#000002" transform="translate(152,587)"/>
<path d="M0 0 C2 1 2 1 2 1 Z " fill="#000002" transform="translate(137,582)"/>
<path d="M0 0 C2 1 2 1 2 1 Z " fill="#000002" transform="translate(122,577)"/>
<path d="M0 0 C2 1 2 1 2 1 Z " fill="#000002" transform="translate(107,572)"/>
<path d="M0 0 C2 1 2 1 2 1 Z " fill="#000002" transform="translate(92,567)"/>
<path d="M0 0 C2 1 2 1 2 1 Z " fill="#000002" transform="translate(77,562)"/>
<path d="M0 0 C2 1 2 1 2 1 Z " fill="#000002" transform="translate(62,557)"/>
<path d="M0 0 C2 1 2 1 2 1 Z " fill="#000002" transform="translate(47,552)"/>
<path d="M0 0 C2 1 2 1 2 1 Z " fill="#000002" transform="translate(32,547)"/>
<path d="M0 0 C2 1 2 1 2 1 Z " fill="#000002" transform="translate(17,542)"/>
<path d="M0 0 C2 1 2 1 2 1 Z " fill="#000002" transform="translate(1276,537)"/>
<path d="M0 0 C2 1 2 1 2 1 Z " fill="#000002" transform="translate(2,537)"/>
<path d="M0 0 C2 1 2 1 2 1 Z " fill="#000002" transform="translate(1273,369)"/>
<path d="M0 0 C2 1 2 1 2 1 Z " fill="#9D96C8" transform="translate(131,265)"/>
<path d="" fill="#000002" transform="translate(0,0)"/>
<path d="" fill="#000002" transform="translate(0,0)"/>
<path d="" fill="#000002" transform="translate(0,0)"/>
<path d="" fill="#000002" transform="translate(0,0)"/>
<path d="" fill="#000002" transform="translate(0,0)"/>
<path d="" fill="#000002" transform="translate(0,0)"/>
<path d="" fill="#000002" transform="translate(0,0)"/>
<path d="" fill="#000002" transform="translate(0,0)"/>
<path d="" fill="#000002" transform="translate(0,0)"/>
<path d="" fill="#000002" transform="translate(0,0)"/>
<path d="" fill="#000002" transform="translate(0,0)"/>
<path d="" fill="#000002" transform="translate(0,0)"/>
<path d="" fill="#000002" transform="translate(0,0)"/>
<path d="" fill="#000002" transform="translate(0,0)"/>
<path d="" fill="#000002" transform="translate(0,0)"/>
<path d="" fill="#000002" transform="translate(0,0)"/>
<path d="" fill="#9D96C8" transform="translate(0,0)"/>
<path d="" fill="#9D96C8" transform="translate(0,0)"/>
<path d="" fill="#9D96C8" transform="translate(0,0)"/>
<path d="" fill="#9D96C8" transform="translate(0,0)"/>
<path d="" fill="#9D96C8" transform="translate(0,0)"/>
<path d="" fill="#9D96C8" transform="translate(0,0)"/>
<path d="" fill="#000002" transform="translate(0,0)"/>
<path d="" fill="#000002" transform="translate(0,0)"/>
<path d="" fill="#000002" transform="translate(0,0)"/>
<path d="" fill="#000002" transform="translate(0,0)"/>
<path d="" fill="#000002" transform="translate(0,0)"/>
<path d="" fill="#000002" transform="translate(0,0)"/>
<path d="" fill="#000002" transform="translate(0,0)"/>
<path d="" fill="#000002" transform="translate(0,0)"/>
<path d="" fill="#000002" transform="translate(0,0)"/>
<path d="" fill="#000002" transform="translate(0,0)"/>
<path d="" fill="#000002" transform="translate(0,0)"/>
<path d="" fill="#000002" transform="translate(0,0)"/>
<path d="" fill="#000002" transform="translate(0,0)"/>
<path d="" fill="#000002" transform="translate(0,0)"/>
<path d="" fill="#000002" transform="translate(0,0)"/>
<path d="" fill="#000002" transform="translate(0,0)"/>
<path d="" fill="#000002" transform="translate(0,0)"/>
<path d="" fill="#000002" transform="translate(0,0)"/>
<path d="" fill="#000002" transform="translate(0,0)"/>
<path d="" fill="#000002" transform="translate(0,0)"/>
<path d="" fill="#000002" transform="translate(0,0)"/>
<path d="" fill="#000002" transform="translate(0,0)"/>
<path d="" fill="#000002" transform="translate(0,0)"/>
<path d="" fill="#000002" transform="translate(0,0)"/>
<path d="" fill="#000002" transform="translate(0,0)"/>
<path d="" fill="#000002" transform="translate(0,0)"/>
<path d="" fill="#000002" transform="translate(0,0)"/>
<path d="" fill="#000002" transform="translate(0,0)"/>
<path d="" fill="#000002" transform="translate(0,0)"/>
<path d="" fill="#000002" transform="translate(0,0)"/>
<path d="" fill="#000002" transform="translate(0,0)"/>
<path d="" fill="#000002" transform="translate(0,0)"/>
<path d="" fill="#000002" transform="translate(0,0)"/>
<path d="" fill="#000002" transform="translate(0,0)"/>
<path d="" fill="#000002" transform="translate(0,0)"/>
<path d="" fill="#000002" transform="translate(0,0)"/>
<path d="" fill="#000002" transform="translate(0,0)"/>
<path d="" fill="#000002" transform="translate(0,0)"/>
<path d="" fill="#000002" transform="translate(0,0)"/>
<path d="" fill="#000002" transform="translate(0,0)"/>
<path d="" fill="#000002" transform="translate(0,0)"/>
<path d="" fill="#000002" transform="translate(0,0)"/>
<path d="" fill="#000002" transform="translate(0,0)"/>
<path d="" fill="#000002" transform="translate(0,0)"/>
<path d="" fill="#000002" transform="translate(0,0)"/>
<path d="" fill="#9D96C8" transform="translate(0,0)"/>
<path d="" fill="#000002" transform="translate(0,0)"/>
<path d="" fill="#000002" transform="translate(0,0)"/>
<path d="" fill="#000002" transform="translate(0,0)"/>
<path d="" fill="#000002" transform="translate(0,0)"/>
<path d="" fill="#000002" transform="translate(0,0)"/>
<path d="" fill="#000002" transform="translate(0,0)"/>
<path d="" fill="#000002" transform="translate(0,0)"/>
<path d="" fill="#000002" transform="translate(0,0)"/>
<path d="" fill="#000002" transform="translate(0,0)"/>
<path d="" fill="#000002" transform="translate(0,0)"/>
<path d="" fill="#000002" transform="translate(0,0)"/>
<path d="" fill="#000002" transform="translate(0,0)"/>
<path d="" fill="#000002" transform="translate(0,0)"/>
<path d="" fill="#000002" transform="translate(0,0)"/>
<path d="" fill="#000002" transform="translate(0,0)"/>
<path d="" fill="#000002" transform="translate(0,0)"/>
<path d="" fill="#000002" transform="translate(0,0)"/>
<path d="" fill="#000002" transform="translate(0,0)"/>
<path d="" fill="#000002" transform="translate(0,0)"/>
<path d="" fill="#000002" transform="translate(0,0)"/>
<path d="" fill="#000002" transform="translate(0,0)"/>
<path d="" fill="#000002" transform="translate(0,0)"/>
<path d="" fill="#000002" transform="translate(0,0)"/>
<path d="" fill="#000002" transform="translate(0,0)"/>
<path d="" fill="#000002" transform="translate(0,0)"/>
<path d="" fill="#000002" transform="translate(0,0)"/>
<path d="" fill="#000002" transform="translate(0,0)"/>
<path d="" fill="#000002" transform="translate(0,0)"/>
<path d="" fill="#000002" transform="translate(0,0)"/>
<path d="" fill="#000002" transform="translate(0,0)"/>
<path d="" fill="#000002" transform="translate(0,0)"/>
<path d="" fill="#000002" transform="translate(0,0)"/>
<path d="" fill="#000002" transform="translate(0,0)"/>
<path d="" fill="#000002" transform="translate(0,0)"/>
<path d="" fill="#000002" transform="translate(0,0)"/>
<path d="" fill="#000002" transform="translate(0,0)"/>
<path d="" fill="#000002" transform="translate(0,0)"/>
<path d="" fill="#000002" transform="translate(0,0)"/>
<path d="" fill="#000002" transform="translate(0,0)"/>
<path d="" fill="#000002" transform="translate(0,0)"/>
<path d="" fill="#000002" transform="translate(0,0)"/>
<path d="" fill="#000002" transform="translate(0,0)"/>
<path d="" fill="#000002" transform="translate(0,0)"/>
<path d="" fill="#000002" transform="translate(0,0)"/>
<path d="" fill="#000002" transform="translate(0,0)"/>
<path d="" fill="#000002" transform="translate(0,0)"/>
<path d="" fill="#000002" transform="translate(0,0)"/>
<path d="" fill="#000002" transform="translate(0,0)"/>
<path d="" fill="#000002" transform="translate(0,0)"/>
<path d="" fill="#000002" transform="translate(0,0)"/>
<path d="" fill="#000002" transform="translate(0,0)"/>
<path d="" fill="#000002" transform="translate(0,0)"/>
<path d="" fill="#000002" transform="translate(0,0)"/>
<path d="" fill="#000002" transform="translate(0,0)"/>
<path d="" fill="#000002" transform="translate(0,0)"/>
<path d="" fill="#000002" transform="translate(0,0)"/>
<path d="" fill="#000002" transform="translate(0,0)"/>
<path d="" fill="#000002" transform="translate(0,0)"/>
<path d="" fill="#9D96C8" transform="translate(0,0)"/>
<path d="" fill="#000002" transform="translate(0,0)"/>
<path d="" fill="#000002" transform="translate(0,0)"/>
<path d="" fill="#000002" transform="translate(0,0)"/>
<path d="" fill="#000002" transform="translate(0,0)"/>
<path d="" fill="#000002" transform="translate(0,0)"/>
<path d="" fill="#000002" transform="translate(0,0)"/>
<path d="" fill="#000002" transform="translate(0,0)"/>
<path d="" fill="#000002" transform="translate(0,0)"/>
<path d="" fill="#000002" transform="translate(0,0)"/>
<path d="" fill="#000002" transform="translate(0,0)"/>
<path d="" fill="#000002" transform="translate(0,0)"/>
<path d="" fill="#000002" transform="translate(0,0)"/>
<path d="" fill="#000002" transform="translate(0,0)"/>
<path d="" fill="#000002" transform="translate(0,0)"/>
<path d="" fill="#000002" transform="translate(0,0)"/>
<path d="" fill="#000002" transform="translate(0,0)"/>
<path d="" fill="#000002" transform="translate(0,0)"/>
<path d="" fill="#000002" transform="translate(0,0)"/>
<path d="" fill="#000002" transform="translate(0,0)"/>
<path d="" fill="#000002" transform="translate(0,0)"/>
<path d="" fill="#000002" transform="translate(0,0)"/>
<path d="" fill="#000002" transform="translate(0,0)"/>
<path d="" fill="#000002" transform="translate(0,0)"/>
<path d="" fill="#000002" transform="translate(0,0)"/>
<path d="" fill="#000002" transform="translate(0,0)"/>
<path d="" fill="#000002" transform="translate(0,0)"/>
<path d="" fill="#000002" transform="translate(0,0)"/>
<path d="" fill="#000002" transform="translate(0,0)"/>
<path d="" fill="#000002" transform="translate(0,0)"/>
<path d="" fill="#000002" transform="translate(0,0)"/>
<path d="" fill="#000002" transform="translate(0,0)"/>
<path d="" fill="#000002" transform="translate(0,0)"/>
<path d="" fill="#000002" transform="translate(0,0)"/>
<path d="" fill="#000002" transform="translate(0,0)"/>
<path d="" fill="#000002" transform="translate(0,0)"/>
<path d="" fill="#000002" transform="translate(0,0)"/>
<path d="" fill="#000002" transform="translate(0,0)"/>
<path d="" fill="#000002" transform="translate(0,0)"/>
<path d="" fill="#000002" transform="translate(0,0)"/>
<path d="" fill="#000002" transform="translate(0,0)"/>
<path d="" fill="#000002" transform="translate(0,0)"/>
<path d="" fill="#000002" transform="translate(0,0)"/>
<path d="" fill="#000002" transform="translate(0,0)"/>
<path d="" fill="#000002" transform="translate(0,0)"/>
<path d="" fill="#000002" transform="translate(0,0)"/>
<path d="" fill="#000002" transform="translate(0,0)"/>
<path d="" fill="#000002" transform="translate(0,0)"/>
<path d="" fill="#000002" transform="translate(0,0)"/>
<path d="" fill="#000002" transform="translate(0,0)"/>
<path d="" fill="#000002" transform="translate(0,0)"/>
<path d="" fill="#000002" transform="translate(0,0)"/>
<path d="" fill="#000002" transform="translate(0,0)"/>
<path d="" fill="#000002" transform="translate(0,0)"/>
<path d="" fill="#000002" transform="translate(0,0)"/>
<path d="" fill="#000002" transform="translate(0,0)"/>
<path d="" fill="#000002" transform="translate(0,0)"/>
<path d="" fill="#000002" transform="translate(0,0)"/>
<path d="" fill="#000002" transform="translate(0,0)"/>
<path d="" fill="#000002" transform="translate(0,0)"/>
<path d="" fill="#000002" transform="translate(0,0)"/>
<path d="" fill="#000002" transform="translate(0,0)"/>
<path d="" fill="#000002" transform="translate(0,0)"/>
<path d="" fill="#000002" transform="translate(0,0)"/>
<path d="" fill="#000002" transform="translate(0,0)"/>
<path d="" fill="#000002" transform="translate(0,0)"/>
<path d="" fill="#000002" transform="translate(0,0)"/>
<path d="" fill="#9D96C8" transform="translate(0,0)"/>
<path d="" fill="#9D96C8" transform="translate(0,0)"/>
<path d="" fill="#000002" transform="translate(0,0)"/>
<path d="" fill="#9D96C8" transform="translate(0,0)"/>
<path d="" fill="#000002" transform="translate(0,0)"/>
<path d="" fill="#000002" transform="translate(0,0)"/>
<path d="" fill="#9D96C8" transform="translate(0,0)"/>
<path d="" fill="#000002" transform="translate(0,0)"/>
<path d="" fill="#9D96C8" transform="translate(0,0)"/>
<path d="" fill="#000002" transform="translate(0,0)"/>
<path d="" fill="#9D96C8" transform="translate(0,0)"/>
<path d="" fill="#000002" transform="translate(0,0)"/>
<path d="" fill="#000002" transform="translate(0,0)"/>
<path d="" fill="#9D96C8" transform="translate(0,0)"/>
<path d="" fill="#9D96C8" transform="translate(0,0)"/>
</svg>
